<?xml version="1.0" encoding="UTF-8" standalone="no"?><!DOCTYPE svg PUBLIC "-//W3C//DTD SVG 1.1//EN" "http://www.w3.org/Graphics/SVG/1.1/DTD/svg11.dtd"><svg width="100%" height="100%" viewBox="0 0 604 435" version="1.1" xmlns="http://www.w3.org/2000/svg" xmlns:xlink="http://www.w3.org/1999/xlink" xml:space="preserve" xmlns:serif="http://www.serif.com/" style="fill-rule:evenodd;clip-rule:evenodd;stroke-linejoin:round;stroke-miterlimit:1.41421;"><g id="gold-logo"><g id="logo"><g><path d="M186.235,168.269l0,-143.338c0,-11.303 -4.074,-18.43 -12.222,-21.378l-5.238,-1.843l2.328,-1.475l79.153,0c0.128,0.021 0.251,0.043 0.368,0.067c-1.212,0.989 -3.469,3.67 -6.77,8.042c-5.82,8.601 -8.73,14.13 -8.73,16.587l0,99.995c-18.643,11.61 -35.178,26.292 -48.889,43.343Z" style="fill:#f11e4d;"/><path d="M398.357,105.319c-8.178,-56.298 -55.685,-100.32 -114.498,-104.761c3.479,-0.245 6.992,-0.369 10.534,-0.369c73.718,0 134.641,53.84 143.621,123.35c-12.388,-7.49 -25.675,-13.635 -39.657,-18.22Z" style="fill:#f11e4d;"/></g><g><path d="M164.79,276.654c-0.447,-0.402 -0.671,-0.886 -0.671,-1.45c0,-2.212 2.522,-3.318 7.566,-3.318c0.388,0 1.261,0.246 2.619,0.738c1.358,0.491 2.425,0.614 3.201,0.368c4.656,-0.491 7.372,-2.826 8.148,-7.003c0.388,-0.983 0.582,-2.58 0.582,-4.792l0,-92.928c13.71,-17.047 30.24,-31.734 48.889,-43.343l0,136.271c0,5.652 6.79,8.478 20.37,8.478c22.116,0 44.62,-5.038 67.513,-15.112c10.782,-4.634 15.832,-12.657 15.148,-24.068l43.163,25.611c-0.644,0.807 -1.651,1.644 -3.021,2.511c-18.995,12.03 -40.701,18.05 -65.184,18.061l-120.098,0l0,-0.024l-28.225,0Z" style="fill:#f11e4d;"/><path d="M186.235,165.923c13.71,-17.047 30.24,-31.734 48.889,-43.344l0,2.347c-18.649,11.609 -35.179,26.296 -48.889,43.343l0,-2.346Z" style="fill:#fff;"/><path d="M398.608,105.405l-0.251,-1.966c13.86,4.555 27.034,10.627 39.34,18.034l0.317,2.066c-12.364,-7.468 -25.543,-13.57 -39.406,-18.134Z" style="fill:#fff;"/><path d="M398.608,105.406c13.891,4.581 27.093,10.694 39.406,18.133c0.705,5.444 1.09,10.979 1.124,16.606c-0.174,41.307 -18.637,78.477 -47.899,104.184l-41.54,-24.081c30.319,-22.327 49.908,-57.77 49.908,-97.638l-0.022,-1.189l0.022,-0.691c0,-5.197 -0.333,-10.32 -0.999,-15.324Z" style="fill:#f11e4d;"/></g></g><path d="M0.119,366.92l25.351,0c18.257,0 30.773,-11.002 30.773,-27.903c0,-16.901 -12.516,-27.903 -30.773,-27.903l-25.351,0l0,55.806Zm12.915,-10.603l0,-34.6l11.799,0c11.081,0 18.336,6.617 18.336,17.3c0,10.683 -7.255,17.3 -18.336,17.3l-11.799,0Z" style="fill:#f11e4d;fill-rule:nonzero;"/><path d="M106.867,366.92l13.553,0l-24.953,-55.806l-12.756,0l-24.873,55.806l13.233,0l4.943,-11.959l25.91,0l4.943,11.959Zm-26.707,-21.765l8.849,-21.365l8.849,21.365l-17.698,0Z" style="fill:#f11e4d;fill-rule:nonzero;"/><path d="M164.028,311.114l-17.22,39.861l-16.981,-39.861l-13.952,0l24.077,55.806l12.755,0l24.156,-55.806l-12.835,0Z" style="fill:#f11e4d;fill-rule:nonzero;"/><rect x="181.487" y="311.114" width="12.915" height="55.806" style="fill:#f11e4d;fill-rule:nonzero;"/><path d="M207.636,366.92l25.352,0c18.256,0 30.772,-11.002 30.772,-27.903c0,-16.901 -12.516,-27.903 -30.772,-27.903l-25.352,0l0,55.806Zm12.915,-10.603l0,-34.6l11.799,0c11.081,0 18.336,6.617 18.336,17.3c0,10.683 -7.255,17.3 -18.336,17.3l-11.799,0Z" style="fill:#f11e4d;fill-rule:nonzero;"/><path d="M296.048,366.92l40.898,0l0,-10.524l-27.983,0l0,-45.282l-12.915,0l0,55.806Z" style="fill:#f11e4d;fill-rule:nonzero;"/><path d="M370.269,367.876c17.539,0 30.534,-12.197 30.534,-28.859c0,-16.662 -12.995,-28.86 -30.534,-28.86c-17.618,0 -30.533,12.278 -30.533,28.86c0,16.582 12.915,28.859 30.533,28.859Zm0,-11.001c-9.965,0 -17.459,-7.255 -17.459,-17.858c0,-10.603 7.494,-17.858 17.459,-17.858c9.966,0 17.46,7.255 17.46,17.858c0,10.603 -7.494,17.858 -17.46,17.858Z" style="fill:#f11e4d;fill-rule:nonzero;"/><path d="M480.685,311.114l-12.995,39.542l-12.755,-39.542l-11.959,0l-13.154,39.223l-12.596,-39.223l-13.393,0l18.336,55.806l13.792,0l12.676,-37.789l12.277,37.789l13.871,0l18.257,-55.806l-12.357,0Z" style="fill:#f11e4d;fill-rule:nonzero;"/><path d="M513.052,356.556l0,-12.915l25.91,0l0,-10.045l-25.91,0l0,-12.118l29.338,0l0,-10.364l-42.173,0l0,55.806l43.209,0l0,-10.364l-30.374,0Z" style="fill:#f11e4d;fill-rule:nonzero;"/><path d="M603.138,366.92l-12.516,-17.938c7.255,-3.109 11.48,-9.248 11.48,-17.619c0,-12.516 -9.327,-20.249 -24.236,-20.249l-24.155,0l0,55.806l12.915,0l0,-15.546l11.878,0l10.763,15.546l13.871,0Zm-14.11,-35.557c0,6.059 -3.987,9.727 -11.879,9.727l-10.523,0l0,-19.453l10.523,0c7.892,0 11.879,3.588 11.879,9.726Z" style="fill:#f11e4d;fill-rule:nonzero;"/><path d="M122.28,434.336l15.07,0c10.852,0 18.293,-6.539 18.293,-16.586c0,-10.047 -7.441,-16.587 -18.293,-16.587l-15.07,0l0,33.173Zm7.677,-6.302l0,-20.568l7.014,0c6.587,0 10.9,3.934 10.9,10.284c0,6.35 -4.313,10.284 -10.9,10.284l-7.014,0Z" style="fill:#f11e4d;fill-rule:nonzero;"/><path d="M192.749,428.176l0,-7.678l15.402,0l0,-5.971l-15.402,0l0,-7.203l17.44,0l0,-6.161l-25.07,0l0,33.173l25.686,0l0,-6.16l-18.056,0Z" style="fill:#f11e4d;fill-rule:nonzero;"/><path d="M251.513,434.905c9.478,0 14.075,-4.739 14.075,-10.284c0,-12.179 -19.288,-7.961 -19.288,-14.074c0,-2.086 1.754,-3.792 6.303,-3.792c2.938,0 6.114,0.853 9.194,2.607l2.369,-5.829c-3.08,-1.943 -7.345,-2.938 -11.515,-2.938c-9.431,0 -13.981,4.691 -13.981,10.331c0,12.321 19.288,8.056 19.288,14.264c0,2.038 -1.848,3.554 -6.397,3.554c-3.981,0 -8.151,-1.421 -10.948,-3.459l-2.606,5.782c2.938,2.274 8.246,3.838 13.506,3.838Z" style="fill:#f11e4d;fill-rule:nonzero;"/><rect x="294.544" y="401.163" width="7.677" height="33.173" style="fill:#f11e4d;fill-rule:nonzero;"/><path d="M356.198,426.944c-1.943,1.042 -3.886,1.421 -5.971,1.421c-6.35,0 -10.757,-4.407 -10.757,-10.615c0,-6.303 4.407,-10.616 10.852,-10.616c3.365,0 6.161,1.185 8.578,3.744l4.928,-4.549c-3.222,-3.744 -8.056,-5.734 -13.885,-5.734c-10.568,0 -18.245,7.155 -18.245,17.155c0,9.999 7.677,17.155 18.103,17.155c4.739,0 9.762,-1.469 13.411,-4.218l0,-13.458l-7.014,0l0,9.715Z" style="fill:#f11e4d;fill-rule:nonzero;"/><path d="M416.858,401.163l0,20.141l-16.492,-20.141l-6.35,0l0,33.173l7.582,0l0,-20.14l16.54,20.14l6.303,0l0,-33.173l-7.583,0Z" style="fill:#f11e4d;fill-rule:nonzero;"/><path d="M466.902,434.905c9.478,0 14.075,-4.739 14.075,-10.284c0,-12.179 -19.288,-7.961 -19.288,-14.074c0,-2.086 1.754,-3.792 6.303,-3.792c2.938,0 6.114,0.853 9.194,2.607l2.37,-5.829c-3.081,-1.943 -7.346,-2.938 -11.516,-2.938c-9.431,0 -13.98,4.691 -13.98,10.331c0,12.321 19.287,8.056 19.287,14.264c0,2.038 -1.848,3.554 -6.397,3.554c-3.981,0 -8.151,-1.421 -10.947,-3.459l-2.607,5.782c2.938,2.274 8.246,3.838 13.506,3.838Z" style="fill:#f11e4d;fill-rule:nonzero;"/></g></svg>