<?xml version="1.0" encoding="UTF-8" standalone="no"?><!DOCTYPE svg PUBLIC "-//W3C//DTD SVG 1.1//EN" "http://www.w3.org/Graphics/SVG/1.1/DTD/svg11.dtd"><svg width="100%" height="100%" viewBox="0 0 100 100" version="1.1" xmlns="http://www.w3.org/2000/svg" xmlns:xlink="http://www.w3.org/1999/xlink" xml:space="preserve" xmlns:serif="http://www.serif.com/" style="fill-rule:evenodd;clip-rule:evenodd;stroke-linejoin:round;stroke-miterlimit:2;"><g id="dribble"><rect x="0.287" y="0.753" width="100" height="100" style="fill:#f90021;fill-opacity:0;"/><path id="dribbble---171-" serif:id="dribbble-[#171]" d="M65.887,55.401c3.4,9.85 5.7,19.97 6.9,30.355c10.455,-6.74 17.55,-17.825 18.9,-30.355c-10.135,-0.695 -16.94,-0.635 -25.8,0m-5.9,-15.08c1,2.135 2.135,4.83 3.4,8.09c9.105,-0.86 19.265,-0.85 28.4,-0.4c-0.535,-9.05 -3.8,-17.11 -9.8,-24.165c-4.335,6.455 -11.665,11.95 -22,16.475m-19.9,-29.755c5.865,6.055 11.3,13.615 16.3,22.665c9.065,-3.795 15.9,-8.62 20.5,-14.48c-11.155,-9.215 -24.9,-11.45 -36.8,-8.185m-15.3,73.095c12,9.33 26.88,11.09 40.2,5.99c-1.311,-11.281 -3.928,-22.373 -7.8,-33.05c-13,2.82 -26.725,15.85 -32.4,27.06m-14.9,-43.14c5.85,0.53 21.84,0.61 38.2,-4.295c-5.065,-8.985 -10.635,-16.475 -16.7,-22.465c-10.735,5.425 -18.48,15.485 -21.5,26.76m9.2,37.75c6.26,-12.25 21.825,-25.525 35.5,-28.565c-1,-2.33 -1.965,-4.425 -2.9,-6.29c-13.86,4.43 -29.66,6.09 -43,5.395c0,10.65 1.745,19.66 10.4,29.455m-18.8,-27.46c0,-18.735 10.04,-34.59 24.9,-43.235c33.115,-19.27 75.1,4.585 75.1,43.235c0,18.74 -10.04,34.59 -24.9,43.24c-15.517,8.939 -34.682,8.939 -50.2,0c-14.875,-8.65 -24.9,-24.515 -24.9,-43.24" style="fill:#f90021;"/></g></svg>