<?xml version="1.0" encoding="UTF-8" standalone="no"?><!DOCTYPE svg PUBLIC "-//W3C//DTD SVG 1.1//EN" "http://www.w3.org/Graphics/SVG/1.1/DTD/svg11.dtd"><svg width="100%" height="100%" viewBox="0 0 100 100" version="1.1" xmlns="http://www.w3.org/2000/svg" xmlns:xlink="http://www.w3.org/1999/xlink" xml:space="preserve" xmlns:serif="http://www.serif.com/" style="fill-rule:evenodd;clip-rule:evenodd;stroke-linejoin:round;stroke-miterlimit:2;"><g id="mail"><rect x="0.287" y="0.257" width="100" height="100" style="fill:#f02;fill-opacity:0;"/><path d="M91.232,12.757c4.998,0 9.055,4.057 9.055,9.055l0,56.889c0,4.998 -4.057,9.055 -9.055,9.056l-82.177,0c-4.997,0 -9.055,-4.058 -9.055,-9.056l0,-56.889c0,-4.998 4.057,-9.055 9.055,-9.055l82.177,0Zm-42.57,39.66c0.969,0.577 2.224,0.582 3.219,-0.091l40.618,-27.482c1.372,-0.927 1.732,-2.794 0.804,-4.165c-0.928,-1.372 -2.794,-1.732 -4.166,-0.804l-38.945,26.349l-39.047,-26.306c-1.373,-0.925 -3.239,-0.562 -4.164,0.812c-0.925,1.373 -0.561,3.239 0.812,4.164l40.665,27.397c0.067,0.045 0.135,0.087 0.204,0.126Z" style="fill:#f02;"/></g></svg>