<?xml version="1.0" encoding="UTF-8" standalone="no"?><!DOCTYPE svg PUBLIC "-//W3C//DTD SVG 1.1//EN" "http://www.w3.org/Graphics/SVG/1.1/DTD/svg11.dtd"><svg width="100%" height="100%" viewBox="0 0 100 100" version="1.1" xmlns="http://www.w3.org/2000/svg" xmlns:xlink="http://www.w3.org/1999/xlink" xml:space="preserve" xmlns:serif="http://www.serif.com/" style="fill-rule:evenodd;clip-rule:evenodd;stroke-linejoin:round;stroke-miterlimit:2;"><g id="twitter"><rect x="0.287" y="0.511" width="100" height="100" style="fill:#f02;fill-opacity:0;"/><path id="twitter---154-" serif:id="twitter-[#154]" d="M31.737,90.496c37.735,0 58.375,-30.78 58.375,-57.475c0,-0.875 0,-1.745 -0.06,-2.61c4.007,-2.851 7.474,-6.395 10.235,-10.465c-3.747,1.638 -7.717,2.712 -11.78,3.185c4.264,-2.504 7.472,-6.479 9.02,-11.175c-4.036,2.355 -8.442,4.012 -13.03,4.9c-7.78,-8.084 -20.777,-8.476 -29.03,-0.875c-5.306,4.886 -7.579,12.276 -5.935,19.3c-16.424,-0.784 -31.782,-8.448 -42.285,-21.1c-5.408,9.184 -2.585,21.159 6.355,26.96c-3.261,-0.092 -6.453,-0.958 -9.315,-2.525l0,0.255c0.005,9.615 6.89,17.895 16.46,19.8c-3.021,0.813 -6.187,0.931 -9.26,0.345c2.685,8.23 10.39,13.865 19.165,14.03c-8.628,6.664 -19.54,9.674 -30.365,8.375c9.413,5.937 20.322,9.079 31.45,9.06" style="fill:#f02;"/></g></svg>