<svg viewBox="0 0 1812 900" xmlns="http://www.w3.org/2000/svg" fill-rule="evenodd" clip-rule="evenodd" stroke-linejoin="round" stroke-miterlimit="1.414"><g fill-rule="nonzero"><path d="M208.868 346.317c-10.801.982-20.619 1.964-30.438 0-16.692-2.945-25.529-12.764-29.456-28.474-3.928-17.674-.982-35.348 2.945-53.022 9.819-42.22 27.493-81.495 46.148-120.77 21.602-44.185 49.094-84.442 75.605-125.68 1.964-1.964 2.945-3.928 3.927-5.892h-5.891L204.94 117.54c.982 0 .982 0 .982.982-.982.982-.982 2.946-1.963 3.927-23.565 43.203-45.167 88.369-58.913 135.499-4.909 14.728-6.873 30.438-8.837 45.167-.982 7.855 0 16.692 1.964 25.528 3.927 19.638 18.656 31.42 42.221 32.402h20.619l-3.928 6.873 16.692-26.51-1.963 2.945c-.982.982-1.964 1.964-2.946 1.964zm-8.837-26.51c-14.728-1.964-24.547-12.765-27.492-28.475-2.946-12.764-1.964-24.547 0-37.311 5.891-33.384 18.655-64.804 32.401-95.242 18.656-45.166 44.185-87.387 70.696-128.626l11.782-17.674h-4.909c-16.692 26.511-33.384 52.04-49.094 78.55-29.456 49.094-53.021 100.152-67.75 155.137-4.909 17.674-8.836 35.347-5.891 54.003 2.946 21.601 15.71 33.384 38.293 34.366 6.873 0 13.747-.982 21.602-.982l10.8-16.692c-.982.982-1.963 1.964-3.927 1.964-8.837 0-17.674 1.963-26.511.982zm27.493-28.475c-18.656-1.964-29.457-13.746-31.42-32.402-1.964-18.655 1.963-36.329 6.873-54.003 12.764-47.13 33.384-91.314 57.93-132.553 11.783-20.62 24.547-40.257 36.33-59.895h-4.91c-34.365 53.022-66.767 106.043-88.368 164.955-8.837 24.547-17.674 48.112-19.638 73.641-.982 7.855-.982 16.692 0 24.547 1.964 18.656 13.746 29.456 33.384 30.438 6.873 0 13.746-.982 20.619-.982l11.783-18.655c-1.964 2.945-5.891 3.927-9.819 4.909h-12.764zm-6.873-65.786c-.982-19.637 2.945-37.311 8.836-54.985 11.783-43.202 32.402-81.495 54.985-119.789 6.874-12.764 14.729-25.528 22.584-38.293h-4.91c-28.474 45.167-55.967 90.333-74.622 141.39-8.837 22.584-16.692 45.167-18.656 70.696-.982 7.855-.982 16.691.982 25.528 2.945 16.692 14.728 25.529 31.42 26.511 4.909 0 10.801-.982 15.71-.982l-.982 1.964 12.764-18.656c-.981.982-2.945.982-4.909 1.964-24.547 3.927-41.239-9.819-43.202-35.348zm62.84 5.892c-15.71.982-27.493-6.873-33.384-21.602-5.891-13.746-4.91-27.492-1.964-42.22 4.909-28.475 14.728-54.985 28.474-80.514 11.783-23.565 25.529-46.148 38.294-69.713l1.963-4.91h-4.909l-35.348 61.858c-16.691 31.421-31.42 63.822-39.275 99.17-3.927 13.746-5.891 27.493-2.945 42.221 3.927 20.619 16.692 31.42 37.311 30.438h4.909l4.91-6.873c1.964-3.928 4.909-7.855 6.873-10.801l-.982.982c-.982.982-1.964 1.964-3.927 1.964zM298.219 201c-9.819-1.964-16.692-7.855-20.62-16.692-6.873-13.747-6.873-28.475-4.909-43.203 4.909-29.456 16.692-55.967 30.438-82.478 6.873-13.746 14.728-27.492 22.583-42.22.982-.982.982-2.946 1.964-3.928h-4.909c-14.729 26.511-29.457 54.003-42.221 81.496-10.801 21.601-18.656 45.166-20.619 69.713-.982 4.91-.982 10.801 0 15.71 1.963 23.565 10.8 33.384 34.365 37.312l-.982 2.945c4.91-8.837 8.837-17.674 11.783-26.51l-2.946 6.873c0 .982-2.945 1.963-3.927.982zm3.927-44.185c-4.909-11.782-5.891-24.547-3.927-37.311 1.963-22.583 10.8-44.185 20.619-64.804l18.656-38.293c.982-.982.982-1.964 1.964-3.928h-5.892c-3.927 6.873-6.873 13.747-10.8 19.638-12.765 26.51-26.511 52.039-34.366 80.514-2.946 12.764-4.909 25.528-2.946 38.293.982 15.71 5.892 29.456 22.583 37.311 2.946-7.855 4.91-14.728 6.874-18.656l-.982 1.964c-5.892-3.927-8.837-8.837-11.783-14.728zm174.774 69.713c-25.529-16.692-51.057-33.383-77.568-49.094-12.764-6.873-26.511-12.764-40.257-17.673-28.474-10.801-39.275-25.529-37.311-55.967.982-21.601 7.855-41.239 16.692-60.877 3.927-9.818 8.837-20.619 13.746-30.438h-6.873l-2.946 5.892c-11.782 24.546-23.565 49.093-29.456 75.604-3.928 13.746-4.91 27.493-1.964 41.239 3.928 15.71 12.764 26.51 28.475 31.42 1.963.982 3.927 1.964 5.891 1.964 31.42 5.891 57.93 20.619 83.459 37.311 15.71 9.819 30.438 20.619 46.148 30.438 3.928 1.964 5.892 4.909 6.874 8.837v-21.601l-.982 5.891-3.928-2.946zm1.964-20.619c-34.366-23.565-68.731-46.148-105.061-65.786-16.692-8.837-26.51-21.601-29.456-40.257-.982-13.746 0-28.474 4.909-42.22 3.928-15.71 9.819-30.439 15.71-45.167h-5.891c-11.782 23.565-21.601 48.112-24.547 73.641-.982 3.928-.982 7.855-.982 11.783-.982 23.565 8.837 41.238 31.42 51.057 39.275 16.692 74.623 41.239 109.97 64.804 4.91 2.946 6.874 3.927 6.874 6.873v-13.746c-.982-.982-1.964-.982-2.946-.982zm-98.188-77.568c24.547 16.692 49.094 32.402 74.623 49.093 6.873 3.928 13.746 8.837 20.619 13.747 2.946.982 4.91 2.945 5.892 5.891v-13.746c-.982-.982-1.964-.982-1.964-.982l-76.587-51.058c-5.891-3.927-10.8-7.855-15.71-12.764-15.71-12.764-21.601-30.438-21.601-50.076.982-19.637 6.873-38.293 13.746-55.967h-6.873c-8.837 21.602-16.692 43.203-16.692 66.768 0 20.619 6.874 37.311 24.547 49.094zm43.203-9.819c-7.855-5.891-13.746-12.764-20.62-19.638-15.71-19.637-17.673-42.22-12.764-65.785.982-6.873 2.946-13.747 3.928-20.62h-7.855c-1.964 9.819-5.892 19.638-6.874 28.475-1.963 9.818-1.963 18.655-1.963 28.474.982 16.692 7.855 30.438 19.637 41.239 12.765 11.782 26.511 21.601 40.257 31.42 11.783 8.837 24.547 17.674 37.311 24.547 3.928 1.964 5.892 4.909 6.874 8.837v-16.692h-1.964l-55.967-40.257zm55.967 14.728c-13.746-10.801-28.475-20.619-41.239-32.402-26.511-24.547-34.366-54.003-26.511-88.369h-8.837c-.981 9.819-3.927 18.656-3.927 28.475-1.964 25.528 7.855 45.166 25.529 62.84 14.728 14.728 31.42 26.51 49.094 37.311 4.909 2.946 6.873 6.873 7.855 10.801V133.25h-1.964zm-57.931-84.441c4.909 19.637 15.71 35.347 30.438 48.112 6.873 6.873 15.71 13.746 23.565 19.637 2.946 1.964 4.91 3.928 5.892 6.873v-22.583l-.982 3.928c-21.602-15.71-41.239-33.384-47.13-60.877-1.964-10.8-1.964-20.619-2.946-31.42h-9.819c-.982 11.783-1.964 24.547.982 36.33zm19.638-36.33c-.982 28.475 10.8 52.04 31.42 70.695 4.909 3.928 7.855 7.855 8.837 12.765V73.356c-17.674-17.674-27.493-37.312-29.457-60.877h-10.8zm40.257 8.837l-.982.982-2.946-9.819h-13.746c2.945 13.747 7.855 27.493 16.692 39.275.982.982.982 2.946.982 4.91V21.316zM180.394 155.833c7.855-12.764 16.691-25.529 24.546-38.293l-24.546 38.293zm301.436-32.402v3.928-3.928zm0 28.475v6.873-6.873zM191.194 372.828c-11.782.982-23.565.982-34.365-1.964-19.638-5.891-31.42-20.619-32.402-42.221-1.964-24.547 3.927-47.13 11.782-69.713 9.819-31.42 23.565-62.84 39.275-93.278l4.91-9.819-35.348 55.967.982.982c-5.891 14.728-12.764 30.438-17.674 45.166-7.855 19.638-13.746 39.275-14.728 59.895-.982 8.837-.982 18.655 0 26.51 3.928 20.62 16.692 33.384 36.329 38.294 11.783 1.963 23.565 2.945 34.366 3.927l-.982.982 11.783-17.674-.982 1.964s-1.964.982-2.946.982zm125.68-206.194h-.982l-.981 2.945 1.963-2.945zm.982 0c-.982.982-.982 2.945-.982 3.927l.982-3.927zm162.992 86.405c-.982-.982-1.964-1.964-3.928-2.946-24.547-18.655-51.057-36.329-78.55-51.057-20.619-11.783-41.239-16.692-63.822-19.638-2.945 0-5.891-.982-8.837-1.964-6.873-1.963-7.855-2.945-8.837-6.873l-1.963 20.62c37.311-1.964 70.695 7.855 101.133 28.474 20.619 12.765 39.275 26.511 59.894 40.257 5.892 3.928 6.873 8.837 4.91 15.71-1.964-1.964-3.928-3.927-5.892-4.909-25.528-19.638-51.057-38.293-80.513-53.022-21.602-10.8-45.167-15.71-69.714-14.728-3.927.982-6.873.982-10.8.982v-1.964l-.982 13.747c22.583-2.946 43.202-2.946 64.804 5.891 27.492 10.801 52.039 26.511 76.586 44.184 6.873 4.91 13.746 10.801 21.601 15.71 4.91 3.928 6.873 8.837 4.91 15.71-6.873-5.891-12.765-10.8-19.638-15.71-23.565-17.673-47.13-33.383-73.641-45.166-22.583-10.801-46.148-14.728-71.677-9.819-.981 0-1.963 0-2.945.982 0-.982-.982-1.964 0-2.945v-8.837l-.982 22.583c16.692-3.928 33.384-4.91 50.076-.982 24.547 6.873 46.148 17.674 66.767 32.402 15.71 10.8 31.42 22.583 46.148 33.384 5.892 3.927 7.855 7.855 5.892 15.71l-3.928-3.928c-21.601-16.692-43.202-33.384-66.767-47.13-19.638-10.801-39.275-19.637-61.859-21.601-11.782-.982-23.565.982-36.329.982v11.782l17.674-2.945c26.51-1.964 50.075 6.873 71.677 18.655 28.474 13.746 54.003 33.384 78.55 54.003.982.982 1.964 2.946 1.964 4.91v-84.442l-.982 3.928zm.982-77.568v7.855-7.855zm-176.738 17.674c.982-.982 1.964-2.946 2.945-4.91l-2.945 4.91zm8.837 5.891c.982-2.946.982-5.891.982-7.855l-.982 7.855zm167.901-1.964v4.909-4.909zm-167.901 2.946v-.982 2.945-1.963zm-172.81 17.673l2.945-2.945v-.982l-2.945 3.927zm.981 0c-4.909 5.892-7.855 12.765-11.782 18.656l11.782-18.656zm146.3 9.819c1.964-1.964 2.946-4.909 4.909-7.855l-4.909 7.855zM174.502 397.375c-13.746 0-26.51-.982-39.275-5.892-20.619-7.855-31.42-22.583-33.383-44.184-1.964-20.619 1.963-41.239 7.855-60.876 4.909-17.674 11.782-34.366 20.619-50.076l-33.384 52.039 6.873-8.836c-.982 1.963-.982 2.945-1.963 3.927-3.928 15.71-7.856 30.438-10.801 45.166-1.964 7.855-1.964 15.71-.982 23.565.982 25.529 14.728 42.221 38.293 50.076 23.565 8.837 48.112 5.891 72.659 1.964 5.891-.982 10.801-1.964 16.692-1.964h-42.221v-1.964l3.928-5.891-.982.982c-.982.982-2.946.982-3.928 1.964zm103.097-151.209c-3.927 4.909-5.891 8.837-8.837 12.764l8.837-12.764zm203.249 93.278c-12.765-9.819-25.529-19.637-38.294-28.474-16.691-10.801-33.383-21.602-51.057-30.439-24.547-12.764-51.058-18.655-79.532-10.8v10.8c0-1.963 2.946-1.963 9.819-2.945 22.583-2.946 43.202 2.945 63.822 10.8 23.565 8.837 44.184 23.566 64.804 38.294 8.836 6.873 16.691 13.746 25.528 19.637 5.892 2.946 6.873 7.855 4.91 13.746-.982-.981-1.964-1.963-3.928-2.945-22.583-15.71-44.184-31.42-67.749-45.166-18.656-12.765-40.257-20.62-63.822-22.584-10.801-.982-21.602 0-33.384 0v11.783c9.819-1.964 19.638-1.964 29.456-.982 26.511 2.946 51.058 11.783 73.641 25.529 21.601 13.746 42.221 28.474 63.822 43.202 1.964.982 2.946.982 2.946 1.964v-31.42h-.982zm-230.741-53.021c1.964-1.964 3.927-4.91 5.891-8.837l-5.891 8.837zm-153.173 1.963c-3.927 4.91-6.873 8.837-8.837 13.747l8.837-13.747zm49.094 130.59c-13.746-1.964-27.493-5.891-39.275-12.764-17.674-9.819-26.511-24.547-28.475-44.185-1.963-18.655.982-37.311 7.855-54.985l1.964-4.909-46.148 73.64c3.928 35.348 27.493 54.004 57.931 65.786 27.492 10.801 55.967 12.765 85.423 11.783 24.547-1.964 50.076-4.91 75.604-2.946 16.692.982 32.402-3.927 48.112-8.837 13.747-4.909 27.493-9.819 41.239-13.746 24.547-6.873 48.112-4.909 70.695 5.891 28.475 12.765 53.022 30.438 75.605 52.04 17.673 16.691 34.365 36.329 52.039 54.003.982 1.964.982 2.945 2.946 3.927-7.855 1.964-13.747.982-18.656-5.891-26.511-31.42-55.967-59.894-90.333-81.496-15.71-9.818-31.42-17.673-49.093-20.619-18.656-2.946-35.348 0-53.022 6.873-11.782 3.928-24.547 9.819-37.311 14.728-20.619 7.855-42.221 11.783-65.786 9.819-15.71-.982-31.42-.982-47.13-.982-27.492 0-54.985-.982-81.495-9.819-18.656-5.891-36.33-13.746-51.058-26.51-11.782-9.819-19.637-20.62-24.547-34.366-.982-1.964-.982-3.928 0-5.891l-13.746 21.601 3.927-5.891c23.565 41.239 61.859 57.93 104.079 67.749 20.62 3.928 41.239 4.91 61.858 7.855 12.765.982 26.511 1.964 39.276 3.928 17.673 1.963 36.329 0 53.021-5.892l43.202-17.673c8.837-3.928 18.656-7.855 28.475-10.801 22.583-6.873 43.202-4.909 64.804 4.909 22.583 9.819 43.202 25.529 61.858 43.203 13.746 12.764 27.492 27.492 40.257 41.239 1.963.982 1.963 2.945 3.927 4.909h41.239c-1.964-1.964-3.927-2.945-4.909-4.909-31.42-38.293-66.768-73.641-108.989-101.133-18.655-11.783-38.293-21.602-60.876-24.547-17.674-2.946-34.366 0-51.057 4.909l-49.094 11.783c-4.91 1.963-10.801 1.963-16.692 1.963-25.529-.982-50.076 2.946-75.605 5.892-31.42 4.909-62.84 5.891-93.278-6.874-9.819-4.909-19.637-9.818-28.474-16.692-18.656-14.728-23.565-35.347-21.602-57.93 0-.982.982-1.964.982-2.946 3.928-6.873 7.855-12.764 12.765-18.655 0 2.945-.982 6.873-.982 10.8 0 8.837-.982 16.692 0 25.529 1.964 18.656 11.782 32.402 28.474 42.221 17.674 10.8 37.312 15.71 58.913 16.692 23.565.981 47.13-3.928 70.695-9.819 17.674-3.928 35.347-5.892 53.021-5.892 21.601.982 41.239-4.909 61.858-9.818 33.384-7.855 63.822-2.946 94.26 12.764 29.457 16.692 55.967 36.33 80.514 59.895 16.692 16.691 33.384 35.347 50.076 53.021v-13.746l-8.837-8.837c-30.438-32.402-61.858-62.84-100.151-86.405-13.747-8.837-29.457-16.692-44.185-23.565-24.547-9.819-51.057-8.837-76.586-4.91-7.855 1.964-14.728 2.946-23.565 3.928v4.909h-64.804v.982c-33.384 8.837-65.786 19.638-101.133 15.71zm92.296-113.898c-2.945 3.928-4.909 7.855-7.855 11.783l7.855-11.783zm243.506 70.695l-.982 3.928c-4.91-3.928-9.819-7.855-15.71-10.801-18.656-11.782-37.312-24.547-56.949-35.347-29.456-16.692-61.858-23.565-96.224-21.601v11.782c11.782.982 23.565.982 35.348 1.964 31.42 3.927 58.912 15.71 85.423 31.42 14.728 8.837 28.474 19.637 43.202 28.474 4.91 2.946 6.873 6.873 4.91 13.746l-6.873-5.891c-26.511-17.674-54.004-34.365-84.442-45.166-23.565-8.837-47.13-9.819-71.677-10.801h-5.891v14.728h2.946c48.112-2.945 92.296 8.837 133.535 34.366 41.239 25.529 77.568 56.949 111.934 91.315.982 1.963 2.945 2.945 4.909 4.909v-10.801l-2.946-1.963c-23.565-23.565-47.13-45.167-73.64-65.786-.982 0-.982-.982-1.964-1.964h-4.909v-26.511zm0-36.329h.981l-.981-5.891v5.891zm-48.112 48.112c-28.475-14.728-58.913-22.583-91.315-21.601h-30.438v16.692c40.257-5.892 79.532-6.874 116.843 12.764 35.348 18.656 66.768 41.239 95.242 68.731 13.746 12.765 27.493 27.493 41.239 41.239v-11.782c-11.783-11.783-23.565-23.565-35.348-34.366-29.456-27.493-60.876-52.04-96.223-71.677zm48.112-16.692v4.909-4.909zm-439.881 4.909c-2.946 3.928-4.909 7.855-7.855 10.801l-.982 2.946 8.837-13.747zm137.463 18.656c1.963-1.964 2.945-4.909 3.927-6.873l-3.927 6.873zm38.293 7.855h29.456v-.982l-29.456.982zm269.034 0h7.855-7.855zm16.692 4.909c19.637 17.674 39.275 34.366 57.931 52.04l3.927 2.946v-9.819c-.982-.982-1.964-.982-1.964-1.964l-51.057-45.166c0-.982-.982-.982-1.964-1.964 5.891-.982 10.801-.982 15.71 2.946 12.764 12.764 25.529 24.547 39.275 37.311v-9.819l-33.384-31.42h-37.311c2.946.982 5.891 1.964 8.837 4.909zm61.858-4.909h-26.511c2.946 0 4.91.982 6.873 3.928l19.638 17.673v-8.837c-3.927-3.927-7.855-7.855-12.764-11.782 4.909-.982 8.837-1.964 12.764 1.964v-2.946zm-545.923 8.837l-.982.982-1.964 2.945 2.946-3.927zM.71 455.305c36.33 34.366 80.514 57.931 127.644 73.641 14.728 4.909 29.456 9.819 43.203 13.746.982.982 1.963.982 1.963 1.964h70.696c32.401-8.837 60.876-25.529 91.314-36.329 20.619-7.855 41.239-11.783 62.84-4.91 16.692 5.892 31.42 15.71 44.184 27.493 12.765 13.746 24.547 28.474 37.312 42.221.982.981 1.964 2.945 1.964 3.927v-26.511c-.982 0-.982.982-1.964.982 0-.982-.982-1.963-1.964-3.927-13.746-16.692-29.456-31.42-48.112-44.185-13.746-9.818-28.474-16.692-46.148-18.655-15.71-.982-30.438 2.945-44.184 8.837-17.674 6.873-34.366 14.728-51.058 21.601-18.656 8.837-37.311 15.71-57.931 17.674-10.8.981-22.583 1.963-32.402-.982-41.238-8.837-81.495-19.638-118.807-37.312-22.583-10.8-44.184-24.546-62.84-41.238-2.945-1.964-4.909-3.928-6.873-5.892-9.819-10.8-8.837-5.891-.982-18.655 40.257 46.148 93.279 65.785 151.209 78.55 10.801 1.964 22.583 3.927 33.384 6.873 28.474 7.855 54.985 4.909 81.496-5.891 19.637-7.855 38.293-16.692 56.949-25.529 9.818-3.928 20.619-6.873 30.438-9.819 18.655-3.927 36.329-.982 54.003 7.855 30.438 14.728 54.003 38.293 76.586 63.822h17.674c-.982 0-2.946-1.964-3.928-3.927-19.637-22.584-40.256-42.221-64.803-59.895-5.892-3.927-12.765-6.873-18.656-10.8-24.547-12.765-50.076-15.71-75.604-4.91-18.656 6.873-36.33 14.728-54.986 22.583-7.855 3.928-15.71 6.873-23.565 8.837-15.71 5.891-32.401 7.855-48.111 4.91-30.439-4.91-59.895-8.837-89.351-14.729-31.42-6.873-60.877-19.637-86.405-38.293a169.253 169.253 0 0 1-26.511-26.51c-.982-2.946-1.964-4.91-1.964-6.874L.71 440.577v14.728zm32.402 42.221c-10.8-7.855-21.601-16.692-32.402-25.529v17.674c.982.982 1.964.982 1.964 1.964 24.547 21.601 52.039 37.311 81.496 50.076.982 0 2.945.981 3.927 2.945h41.239s-.982 0-1.964-.982c-32.402-12.764-64.804-25.529-94.26-46.148zM.71 527.964c7.855 4.91 15.71 10.801 24.547 16.692h31.42c-.982 0-2.945-.982-3.927-1.964-18.656-9.818-36.33-20.619-52.04-34.365v19.637zm478.174 72.659c-15.71-25.529-33.384-49.094-57.931-67.749-22.583-16.692-48.112-22.584-74.622-13.747-15.71 4.91-31.42 10.801-46.149 17.674-8.836 3.928-16.691 6.873-25.528 7.855h37.311v2.946c0-.982.982-2.946 1.964-2.946 18.655-6.873 37.311-13.746 56.949-11.782 16.691.981 31.42 6.873 44.184 16.692 36.329 30.438 57.931 68.731 65.786 114.879l.982 6.873v-64.804c-1.964-2.945-2.946-3.927-2.946-5.891zm-219.94-55.967c4.909.982 10.8.982 15.71 0h-15.71zm197.357 106.043c-6.873-29.457-20.62-54.985-42.221-76.587-19.637-18.655-42.221-26.51-68.731-22.583-9.819 1.964-18.656 3.928-27.493 6.873-1.964 0-3.927.982-5.891.982v17.674c0-.982 1.964-1.964 2.946-1.964 13.746-2.945 27.492-4.909 41.238-3.927 22.584 1.964 40.257 13.746 54.004 31.42 25.528 33.384 33.383 70.695 21.601 111.934h22.583c6.873-20.62 7.855-42.221 1.964-63.822zm-61.858-27.493c-12.765-19.637-31.42-30.438-55.967-31.42-7.855-.982-16.692 0-26.511 0v20.62c25.529 0 47.13 7.855 61.858 29.456 7.855 11.782 11.783 24.547 12.765 38.293.981 10.801 0 22.583 0 34.366h22.583c6.873-32.402 4.909-62.84-14.728-91.315zm-40.257 47.13c-5.892-17.673-19.638-28.474-37.312-33.384-3.927-.981-4.909-2.945-4.909-6.873v39.275c14.728 11.783 21.601 27.493 23.565 45.167h27.493c0-3.928 0-7.855-.982-11.783-1.964-10.8-3.928-22.583-7.855-32.402zm127.644 18.656a53.438 53.438 0 0 0 0-17.674v17.674zm0 25.529v-25.529c-.982 8.837-1.964 16.692-4.91 25.529h4.91z" fill="url(#_Linear1)"/><path d="M789.157 161.724c-44.185 91.315-42.221 182.629 3.927 271.98 13.747 25.529 30.438 50.076 45.167 74.623 3.927 6.873 7.855 13.746 11.782 19.637l.982 1.964c-20.619-37.311-27.493-98.188-27.493-167.901 0-98.187 14.729-178.701 61.859-199.321l-4.91 1.964c.982-1.964.982-3.927 1.964-5.891 14.728-29.456 35.348-54.985 55.967-80.514 18.656-20.619 36.329-42.221 54.003-63.822.982-.982 3.928-1.964 5.891-.982h1.964L979.641 7.57l-3.928 4.909c-20.619 24.547-41.239 50.076-62.84 74.623-22.583 27.492-44.184 55.967-57.931 90.332-14.728 38.294-26.51 76.587-29.456 117.826 0 10.8-.982 21.601-1.964 32.402h-1.963c-.982-10.801-2.946-21.602-3.928-32.402-6.873-55.967 7.855-107.025 37.311-154.155 15.71-24.547 33.384-47.13 52.04-68.731 18.656-21.602 36.329-43.203 54.003-64.804 1.964-.982 3.928-1.964 5.891-1.964h.982C950.184 2.661 931.529.697 910.909.697h-2.945l-55.967 68.731c-23.565 28.475-46.148 57.931-62.84 92.296zM907.964.697h-15.71l-3.928.982c5.891-.982 12.765-.982 19.638-.982zm34.365 721.679c-28.474-72.659-75.604-135.499-118.807-199.321-14.728-21.601-29.456-43.203-42.22-66.768-33.384-60.876-48.112-127.644-39.275-197.357 6.873-55.967 27.492-106.042 59.894-150.227 18.656-26.51 40.257-51.057 60.876-77.568 5.892-6.873 12.765-14.728 18.656-23.565 1.964-1.964 3.928-4.909 6.873-5.891-12.764.982-25.529 1.963-37.311 4.909 2.946-.982 6.873-1.964 9.819-1.964l.982.982c-1.964 1.964-2.946 3.928-4.91 5.891l-55.967 69.714c-31.42 41.238-55.967 85.423-68.731 135.499-18.656 67.749-12.764 135.498 10.801 201.284 13.746 40.257 36.329 76.586 60.876 111.934 28.474 40.257 55.967 80.514 83.459 121.753 14.728 21.601 25.529 44.184 35.348 66.767l2.946 7.855c7.855-.982 15.71-.982 22.583-1.964h-2.946c-.982 0-1.964-.981-2.946-1.963zM925.638 3.642c.981-.981 2.945-1.963 3.927-1.963 4.909 0 9.819 0 15.71.982-8.837 12.764-18.656 24.546-27.492 36.329l-45.167 51.058c-15.71 19.637-30.438 40.256-42.22 61.858-41.239 74.622-46.149 152.19-13.747 230.741 4.91 9.818 7.855 19.637 7.855 31.42l2.946 33.383c.982.982 0 1.964 0 3.928 0-.982-.982-.982-.982-.982-23.565-39.275-41.239-79.532-48.112-124.698-7.855-55.967 1.964-108.988 26.511-160.046 16.692-34.366 39.275-63.822 63.822-93.278l56.949-68.732zm53.021 3.928c-3.928-.982-6.873-1.964-10.801-1.964 3.928.982 7.855 1.964 10.801 1.964zm-126.662-.982c-2.946 0-5.891.982-8.837.982l8.837-.982zm-44.185 561.633c-22.583-31.42-45.166-61.858-61.858-96.224-22.583-47.13-38.293-95.242-42.22-146.299-5.892-63.822 7.855-123.717 36.329-180.665 16.692-34.366 40.257-65.786 63.822-95.242l29.456-37.312c1.964-1.963 3.928-2.945 6.873-3.927l2.946-.982c-15.71 3.927-29.456 7.855-42.221 13.746h1.964c-.982 1.964-1.964 2.946-2.946 3.928-22.583 28.474-45.166 56.949-63.822 88.369-34.365 58.912-54.003 122.734-53.021 191.465 0 41.239 10.801 79.532 23.565 117.826 19.638 58.912 51.058 111.933 88.369 161.027 21.601 27.493 42.221 55.967 61.858 84.442 10.801 15.71 18.656 34.365 27.493 51.057l2.945 5.891h-3.927l23.565.982c-9.819-18.655-17.674-37.311-28.475-55.967-20.619-36.329-46.148-68.731-70.695-102.115zm201.285-551.814l-8.837-2.946 8.837 2.946zm-79.532 97.206c-9.819 12.764-16.692 27.492-24.547 40.256-1.964 2.946-3.927 4.91-6.873 4.91l-7.855 1.964c5.891-1.964 12.764-2.946 20.619-2.946 3.928 0 7.855 0 11.783.982 7.855-18.656 17.674-36.33 30.438-52.04 18.656-24.546 39.275-47.13 57.931-70.695l6.873-7.855c2.945-4.909 3.927-5.891 7.855-4.909l-17.674-6.873c-6.873 8.837-13.746 16.692-18.656 24.547-20.619 23.565-41.238 48.112-59.894 72.659zM798.976 22.298l1.963-.982c-.982 0-.982 0-1.963.982zm66.767 699.096c-18.656-41.239-46.148-76.587-73.641-111.934-23.565-31.42-46.148-62.84-64.803-97.206-28.475-54.003-50.076-110.952-60.877-172.81-6.873-44.184-1.964-87.387 9.819-130.589 15.71-60.877 45.166-113.898 84.441-162.992 1.964-2.946 5.892-5.891 9.819-7.855 8.837-5.891 18.656-10.801 28.475-15.71C691.951 70.41 650.712 191.181 646.785 338.462l.982 2.946c9.818 51.057 28.474 100.151 50.075 148.263 21.602 47.13 51.058 89.351 81.496 131.571 18.656 24.547 36.329 50.076 54.003 75.605 4.91 6.873 8.837 14.728 12.765 21.601 0 .982-.982.982-.982.982h-1.964c10.801 1.964 22.583 3.928 34.366 4.909l-7.855-.981c-1.964 0-2.946-.982-3.928-1.964zM1025.789 23.28c1.964.982 2.946 1.964 4.909 2.946l-.982-.982-3.927-1.964zm7.855 3.927c-.982 0-1.964-.981-2.946-.981l2.946.981zm0 0c.982.982.982.982 1.964.982l-1.964-.982zm-99.17 134.517c7.855 3.928 14.729 7.855 20.62 13.747-.982-.982-.982-2.946 0-4.91 5.891-11.782 10.8-23.565 16.692-34.365 15.71-28.475 35.347-54.003 56.949-78.55 5.891-7.855 11.782-14.729 18.655-22.584l-12.764-6.873c-37.312 42.221-73.641 83.46-95.242 135.499l-4.91-1.964zm113.898-125.68l-.982-.982.982.982zm98.188 521.377c-.982-.982-1.964-.982-1.964-1.964-29.456-58.913-59.895-117.825-82.478-179.684-12.764-34.365-22.583-69.713-25.528-106.042-2.946-43.203 4.909-84.442 27.492-121.753 6.873-10.8 13.746-21.601 21.601-32.402 5.892-8.837 13.747-16.692 20.62-25.528 0 .981.982.981.982.981l1.963 1.964c-4.909-5.891-8.837-11.782-13.746-16.692l.982.982c0 .982 0 3.928-.982 4.91l-27.492 35.347c-21.602 29.456-37.312 61.858-43.203 99.17-4.909 33.383-1.964 66.767 5.891 99.169 11.783 48.112 30.438 94.26 51.058 139.426 17.674 37.312 36.329 74.623 54.985 111.934 2.946 4.91 2.946 9.819.982 13.747-1.964 2.945-2.946 4.909-3.928 7.855-1.964-2.946-3.927-5.892-4.909-8.837-27.493-55.967-56.949-111.934-80.514-169.865-14.728-35.347-27.493-71.677-34.366-108.988-14.728-70.695 0-134.517 43.203-192.448 10.801-12.764 20.619-26.51 31.42-40.257-11.783-12.764-25.529-23.565-40.257-32.402l8.837 5.892c-17.674 23.565-35.348 46.148-52.04 69.713-17.673 23.565-30.438 49.094-38.293 77.568l-2.945-2.946c5.891 7.855 11.782 18.656 15.71 30.439 0-3.928 0-7.855.982-11.783 4.909-28.474 16.691-54.985 32.401-78.55 15.711-26.511 35.348-51.058 55.967-75.605 3.928 2.946 6.874 5.892 9.819 8.837-13.746 17.674-27.492 35.348-40.257 53.022-21.601 29.456-36.329 60.876-42.22 96.224-5.892 35.347-2.946 69.713 4.909 104.078 10.801 48.112 28.474 92.297 49.094 136.481 23.565 50.076 48.112 100.152 72.659 149.245.981 3.928 1.963 5.892.981 9.819 9.819-17.674 18.656-37.311 25.529-57.931l-.982 1.964c-.981.982-.981 2.946-1.963 4.91zm-57.931-488.975c1.964 2.946 3.927 4.91 5.891 5.891l-5.891-5.891zm6.873 7.855c0-.982-.982-.982-.982-1.964l.982 1.964zm17.674 22.583c0-1.963-1.964-2.945-3.928-5.891l3.928 5.891zm39.275 198.339c-1.964-24.547-.982-48.112 6.873-71.677.982-.981.982-1.963 1.964-3.927 1.964 6.873 2.945 11.782 3.927 17.674 0 5.891-.982 11.782-.982 17.673-3.927 26.511-.981 53.022 4.91 78.551l5.891 18.655c-.982-101.133-18.656-191.466-61.858-255.288.982 2.946-.982 4.91-5.891 9.819-19.638 23.565-36.33 49.094-47.13 77.568-13.747 38.294-13.747 77.569-5.892 116.844 7.855 44.184 23.565 86.405 42.221 126.662 16.692 35.347 33.384 70.695 51.058 105.06 2.945 4.91 3.927 9.819 1.963 14.729 15.71-48.112 23.565-105.061 25.529-165.938-1.964-2.945-3.927-5.891-4.909-9.818-8.837-25.529-15.71-51.058-17.674-76.587zm2.946 229.759c0-.982-.982-.982-.982-.982-26.511-52.039-52.04-104.078-70.695-160.045-10.801-30.438-19.638-61.859-21.602-94.26-2.945-38.294 3.928-74.623 22.583-108.007 9.819-17.674 22.584-34.365 36.33-51.057l4.909 7.855c1.964 1.963.982 3.927-.982 6.873-13.746 16.692-26.51 34.365-35.347 54.985-12.765 28.474-17.674 57.931-15.71 89.351 2.945 44.184 16.692 86.405 33.384 127.643 14.728 35.348 31.42 69.714 47.13 104.079 3.927 7.855 4.909 14.728.982 23.565zm-19.638-86.405c-16.692-37.311-32.402-75.604-42.221-115.861-5.891-26.511-9.818-54.003-7.855-82.478 2.946-29.456 12.765-55.967 28.475-80.514 5.891-8.836 12.764-16.691 18.655-26.51 1.964 3.927 3.928 6.873 4.91 10.8.982.982-.982 3.928-1.964 4.91-15.71 20.619-27.493 42.221-33.384 66.767-7.855 27.493-6.873 54.004-2.945 81.496 7.855 48.112 25.528 93.278 45.166 137.463 5.891 12.764 10.801 24.547 16.692 36.329 4.909 7.855 3.927 14.728.982 24.547l-26.511-56.949zM922.692 158.779l11.782 2.945-11.782-2.945zm244.487 305.363c0-.982 0-1.963-.982-1.963-20.619-46.149-41.239-92.297-52.039-141.391-6.873-33.383-9.819-65.785-.982-99.169 4.909-22.583 15.71-42.221 30.438-61.858 1.964 3.927 2.946 7.855 3.928 10.8 0 .982 0 3.928-.982 4.91-24.547 35.347-31.42 74.622-26.511 116.843 4.909 38.293 16.692 73.641 30.438 108.988 4.91 11.783 8.837 23.565 14.728 34.366 3.928 8.837 5.892 17.674 1.964 28.474zM885.381 162.706c1.963 0 3.927-.982 5.891-1.963l-5.891 1.963zm69.713 12.765c1.964 3.927 5.891 6.873 8.837 10.8-2.946-3.927-5.892-7.855-8.837-10.8zm216.994 252.342c-.981-.982-1.963-1.964-1.963-2.946-15.71-36.329-29.457-73.64-36.33-112.915-5.891-33.384-6.873-67.75 5.892-100.152l11.782-23.565h1.964c1.964 7.855 3.927 13.746 0 22.583-10.801 21.602-13.746 46.148-12.765 69.713 1.964 42.221 14.729 81.496 29.457 120.771 3.927 8.837 1.963 16.692 1.963 26.511zm-185.574-188.52c-1.964-4.91-2.946-10.801-4.91-15.71-.981-1.964-1.963-4.91-1.963-6.873 12.764 33.383 17.673 80.513 18.655 131.571-.982-36.329-2.945-72.659-11.782-108.988zm-339.729 97.205v25.529-25.529zm469.336 280.817c-29.456-59.894-58.912-119.789-86.405-179.683-11.782-24.547-20.619-51.058-30.438-76.587-.982-2.945-.982-5.891-.982-8.837v-3.927 13.746c0 13.746 0 27.493-.982 40.257.982.982.982.982.982 1.964 28.475 68.731 62.84 135.499 95.242 202.266l11.783 24.547c.982 2.946.982 4.91-.982 6.873l-8.837 10.801c0-.982-.982-1.964-.982-1.964-30.438-63.822-60.876-126.662-90.332-189.502-5.892-13.746-8.837-18.655-8.837-25.529-.982 12.765-2.946 24.547-4.91 36.33.982.982.982.982.982 1.964l88.369 184.592c3.928 9.819 4.909 6.873-2.946 13.747-1.963 1.963-3.927 3.927-6.873 5.891l-32.402-69.713c-16.692-35.348-33.383-70.696-51.057-106.043-.982-1.964-1.964-3.928-1.964-5.891-1.964 8.837-4.909 17.673-7.855 24.547 27.493 55.967 54.985 110.952 79.532 167.9l-5.891 3.928c29.456-18.656 53.021-45.166 71.677-76.586-1.964 1.963-2.946 4.909-4.91 7.855-.982-1.964-.982-1.964-.982-2.946zm58.913-263.143v7.855-7.855zm-527.267 44.185c-.982-11.783-.982-24.547-.982-36.33v30.438l.982 5.892zm527.267-14.729v-21.601 21.601zM762.646 626.152c-50.076-64.804-86.405-137.463-112.916-215.031-.982-3.928-1.963-8.837-1.963-12.764.981 23.565 2.945 47.13 5.891 68.731v-.982l2.945 5.891c25.529 64.804 62.841 123.717 105.061 179.684l34.366 47.13c.982.982.982 2.945 1.964 3.927v.982c8.837 3.928 17.673 7.855 27.492 10.801l-2.945-2.946c-16.692-30.438-38.294-57.931-59.895-85.423zm233.687-214.049c-.982 8.837-.982 14.728-.982 19.637.982-9.818 1.963-19.637 1.963-29.456-.981 3.928-.981 6.873-.981 9.819zm-342.675 54.985c0 2.946 0 4.909.982 6.873l-.982-6.873zm330.892 25.529c1.964-7.855 3.928-15.71 5.891-24.547-1.963 6.873-2.945 13.746-4.909 20.619l-.982 3.928zm-321.073 28.474c-2.946-15.71-6.874-30.438-8.837-47.13 1.963 15.71 3.927 31.42 8.837 47.13zm304.381 13.746c2.946-4.909 5.891-10.8 8.837-17.673-2.946 5.891-5.891 10.8-7.855 15.71l-.982 1.963zm-204.23 146.3c-25.529-37.311-53.021-72.659-75.604-111.934l-4.91-8.837c-8.837-12.764-14.728-25.529-19.637-39.275 18.655 73.641 53.021 133.535 109.97 169.865-3.928-2.946-6.873-5.892-9.819-9.819zm87.387-151.209c2.946 5.891 6.873 10.801 9.819 15.71l-9.819-15.71zm116.843 10.801c-.982-1.964-.982-3.928 0-5.892-4.909 7.855-9.819 13.747-15.71 18.656l1.964-.982c25.529 49.094 51.057 98.188 71.677 150.227-4.91 1.964-8.837 2.946-12.765 5.891 9.819-3.927 19.638-8.836 28.475-13.746l-1.964-2.945c-20.619-52.04-46.148-101.134-71.677-151.209zm-25.529 20.619c-6.873 3.928-15.71 6.873-25.528 7.855h1.963c.982 0 2.946.982 3.928 1.964 25.529 45.166 50.076 91.314 69.713 139.426.982.982.982 1.964 1.964 3.928-4.91 1.963-8.837 2.945-13.746 3.927-.982 0-3.928-1.964-3.928-3.927-6.873-12.765-11.782-26.511-18.656-39.275-17.673-34.366-37.311-67.75-55.967-101.134 0-1.963-.981-2.945-1.963-4.909H906c-17.674-.982-32.402-9.819-44.184-23.565l1.963 2.946c.982 1.963 2.946 2.945 3.928 4.909 30.438 46.148 59.894 93.278 82.477 144.336 3.928 7.855 6.874 15.71 10.801 24.547l-3.927.982c19.637-2.946 37.311-7.855 54.003-13.747-21.602-51.057-46.148-99.169-71.677-146.299l2.945-1.964zm0 0c3.928-1.964 6.874-4.909 9.819-7.855l-9.819 7.855zM906 569.203h10.801c-2.946-.982-6.873 0-10.801 0zm217.976 39.275c0 .982-.981 2.946-1.963 3.928l.982-.982.981-2.946zm-82.477 86.405l8.837-5.891-8.837 5.891zm-257.252 1.964c-3.927-1.964-6.873-3.928-10.8-5.891l10.8 5.891zm.982 0c2.946 1.964 5.892 2.946 8.837 4.909l-8.837-4.909zm11.783 6.873c0-.982-1.964-.982-2.946-1.964l2.946 1.964zm216.012 4.909c-.981 0-.981 0-1.963.982l1.963-.982zm-187.538 5.892c5.891 1.963 11.783 3.927 18.656 4.909-6.873-1.964-12.765-2.946-18.656-4.909zm122.735 9.818c2.945 0 5.891-.981 7.855-.981l-7.855.981zm-70.695 0c1.963.982 3.927.982 5.891.982l-5.891-.982zm33.383 1.964h14.729-14.729zm-3.927 0h3.927-3.927z" fill="url(#_Linear2)"/><path d="M1454.87 346.317c-10.801.982-20.62 1.964-30.438 0-16.692-2.945-25.529-12.764-29.457-28.474-3.927-17.674-.982-35.348 2.946-53.022 9.819-42.22 27.492-81.495 46.148-120.77 21.601-44.185 49.094-84.442 75.605-125.68 1.963-1.964 2.945-3.928 3.927-5.892h-5.891l-66.768 105.061c.982 0 .982 0 .982.982-.982.982-.982 2.946-1.964 3.927-23.565 43.203-45.166 88.369-58.912 135.499-4.91 14.728-6.873 30.438-8.837 45.167-.982 7.855 0 16.692 1.964 25.528 3.927 19.638 18.655 31.42 42.22 32.402h20.62l-3.928 6.873 16.692-26.51-1.964 2.945c-.982.982-1.963 1.964-2.945 1.964zm-8.837-26.51c-14.728-1.964-24.547-12.765-27.493-28.475-2.945-12.764-1.963-24.547 0-37.311 5.892-33.384 18.656-64.804 32.402-95.242 18.656-45.166 44.185-87.387 70.695-128.626l11.783-17.674h-4.91c-16.691 26.511-33.383 52.04-49.093 78.55-29.457 49.094-53.022 100.152-67.75 155.137-4.909 17.674-8.837 35.347-5.891 54.003 2.946 21.601 15.71 33.384 38.293 34.366 6.873 0 13.746-.982 21.601-.982l10.801-16.692c-.982.982-1.964 1.964-3.928 1.964-8.836 0-17.673 1.963-26.51.982zm27.492-28.475c-18.655-1.964-29.456-13.746-31.42-32.402-1.963-18.655 1.964-36.329 6.873-54.003 12.765-47.13 33.384-91.314 57.931-132.553 11.783-20.62 24.547-40.257 36.33-59.895h-4.91c-34.365 53.022-66.767 106.043-88.369 164.955-8.837 24.547-17.673 48.112-19.637 73.641-.982 7.855-.982 16.692 0 24.547 1.964 18.656 13.746 29.456 33.384 30.438 6.873 0 13.746-.982 20.619-.982l11.783-18.655c-1.964 2.945-5.892 3.927-9.819 4.909h-12.765zm-6.873-65.786c-.982-19.637 2.946-37.311 8.837-54.985 11.783-43.202 32.402-81.495 54.985-119.789 6.873-12.764 14.728-25.528 22.583-38.293h-4.909c-28.474 45.167-55.967 90.333-74.623 141.39-8.837 22.584-16.692 45.167-18.655 70.696-.982 7.855-.982 16.691.982 25.528 2.945 16.692 14.728 25.529 31.42 26.511 4.909 0 10.8-.982 15.71-.982l-.982 1.964 12.764-18.656c-.982.982-2.945.982-4.909 1.964-24.547 3.927-41.239-9.819-43.203-35.348zm62.84 5.892c-15.71.982-27.492-6.873-33.383-21.602-5.892-13.746-4.91-27.492-1.964-42.22 4.909-28.475 14.728-54.985 28.474-80.514 11.783-23.565 25.529-46.148 38.293-69.713l1.964-4.91h-4.909l-35.348 61.858c-16.692 31.421-31.42 63.822-39.275 99.17-3.927 13.746-5.891 27.493-2.946 42.221 3.928 20.619 16.692 31.42 37.312 30.438h4.909l4.91-6.873c1.963-3.928 4.909-7.855 6.873-10.801l-.982.982c-.982.982-1.964 1.964-3.928 1.964zM1544.22 201c-9.818-1.964-16.691-7.855-20.619-16.692-6.873-13.747-6.873-28.475-4.909-43.203 4.909-29.456 16.692-55.967 30.438-82.478 6.873-13.746 14.728-27.492 22.583-42.22.982-.982.982-2.946 1.964-3.928h-4.91c-14.728 26.511-29.456 54.003-42.22 81.496-10.801 21.601-18.656 45.166-20.62 69.713-.982 4.91-.982 10.801 0 15.71 1.964 23.565 10.801 33.384 34.366 37.312l-.982 2.945c4.909-8.837 8.837-17.674 11.783-26.51l-2.946 6.873c0 .982-2.946 1.963-3.928.982zm3.928-44.185c-4.909-11.782-5.891-24.547-3.928-37.311 1.964-22.583 10.801-44.185 20.62-64.804l18.655-38.293c.982-.982.982-1.964 1.964-3.928h-5.891c-3.928 6.873-6.873 13.747-10.801 19.638-12.764 26.51-26.51 52.039-34.365 80.514-2.946 12.764-4.91 25.528-2.946 38.293.982 15.71 5.891 29.456 22.583 37.311 2.946-7.855 4.91-14.728 6.873-18.656l-.982 1.964c-5.891-3.927-8.836-8.837-11.782-14.728zm174.774 69.713c-25.529-16.692-51.058-33.383-77.568-49.094-12.765-6.873-26.511-12.764-40.257-17.673-28.475-10.801-39.275-25.529-37.312-55.967.982-21.601 7.855-41.239 16.692-60.877 3.928-9.818 8.837-20.619 13.747-30.438h-6.874l-2.945 5.892c-11.783 24.546-23.565 49.093-29.456 75.604-3.928 13.746-4.91 27.493-1.964 41.239 3.927 15.71 12.764 26.51 28.474 31.42 1.964.982 3.928 1.964 5.891 1.964 31.421 5.891 57.931 20.619 83.46 37.311 15.71 9.819 30.438 20.619 46.148 30.438 3.928 1.964 5.891 4.909 6.873 8.837v-21.601l-.982 5.891-3.927-2.946zm1.964-20.619c-34.366-23.565-68.732-46.148-105.061-65.786-16.692-8.837-26.511-21.601-29.456-40.257-.982-13.746 0-28.474 4.909-42.22 3.928-15.71 9.819-30.439 15.71-45.167h-5.891c-11.783 23.565-21.602 48.112-24.547 73.641-.982 3.928-.982 7.855-.982 11.783-.982 23.565 8.837 41.238 31.42 51.057 39.275 16.692 74.623 41.239 109.97 64.804 4.91 2.946 6.873 3.927 6.873 6.873v-13.746c-.982-.982-1.963-.982-2.945-.982zm-98.188-77.568c24.547 16.692 49.094 32.402 74.623 49.093 6.873 3.928 13.746 8.837 20.619 13.747 2.946.982 4.909 2.945 5.891 5.891v-13.746c-.982-.982-1.963-.982-1.963-.982l-76.587-51.058c-5.891-3.927-10.8-7.855-15.71-12.764-15.71-12.764-21.601-30.438-21.601-50.076.982-19.637 6.873-38.293 13.746-55.967h-6.873c-8.837 21.602-16.692 43.203-16.692 66.768 0 20.619 6.873 37.311 24.547 49.094zm43.203-9.819c-7.855-5.891-13.747-12.764-20.62-19.638-15.71-19.637-17.674-42.22-12.764-65.785.982-6.873 2.945-13.747 3.927-20.62h-7.855c-1.963 9.819-5.891 19.638-6.873 28.475-1.964 9.818-1.964 18.655-1.964 28.474.982 16.692 7.855 30.438 19.638 41.239 12.764 11.782 26.511 21.601 40.257 31.42 11.782 8.837 24.547 17.674 37.311 24.547 3.928 1.964 5.891 4.909 6.873 8.837v-16.692h-1.963l-55.967-40.257zm55.967 14.728c-13.747-10.801-28.475-20.619-41.239-32.402-26.511-24.547-34.366-54.003-26.511-88.369h-8.837c-.982 9.819-3.927 18.656-3.927 28.475-1.964 25.528 7.855 45.166 25.528 62.84 14.729 14.728 31.42 26.51 49.094 37.311 4.91 2.946 6.873 6.873 7.855 10.801V133.25h-1.963zm-57.931-84.441c4.909 19.637 15.71 35.347 30.438 48.112 6.873 6.873 15.71 13.746 23.565 19.637 2.946 1.964 4.909 3.928 5.891 6.873v-22.583l-.982 3.928c-21.601-15.71-41.238-33.384-47.13-60.877-1.963-10.8-1.963-20.619-2.945-31.42h-9.819c-.982 11.783-1.964 24.547.982 36.33zm19.637-36.33c-.982 28.475 10.801 52.04 31.42 70.695 4.91 3.928 7.855 7.855 8.837 12.765V73.356c-17.674-17.674-27.492-37.312-29.456-60.877h-10.801zm40.257 8.837l-.982.982-2.945-9.819h-13.747c2.946 13.747 7.856 27.493 16.692 39.275.982.982.982 2.946.982 4.91V21.316zm-301.436 134.517c7.855-12.764 16.692-25.529 24.547-38.293l-24.547 38.293zm301.436-32.402v3.928-3.928zm0 28.475v6.873-6.873zm-290.635 220.922c-11.783.982-23.565.982-34.366-1.964-19.637-5.891-31.42-20.619-32.402-42.221-1.963-24.547 3.928-47.13 11.783-69.713 9.819-31.42 23.565-62.84 39.275-93.278l4.909-9.819-35.347 55.967.982.982c-5.892 14.728-12.765 30.438-17.674 45.166-7.855 19.638-13.746 39.275-14.728 59.895-.982 8.837-.982 18.655 0 26.51 3.927 20.62 16.692 33.384 36.329 38.294 11.783 1.963 23.565 2.945 34.366 3.927l-.982.982 11.782-17.674-.981 1.964s-1.964.982-2.946.982zm125.68-206.194h-.982l-.982 2.945 1.964-2.945zm.982 0c-.982.982-.982 2.945-.982 3.927l.982-3.927zm162.991 86.405c-.981-.982-1.963-1.964-3.927-2.946-24.547-18.655-51.058-36.329-78.55-51.057-20.62-11.783-41.239-16.692-63.822-19.638-2.946 0-5.891-.982-8.837-1.964-6.873-1.963-7.855-2.945-8.837-6.873l-1.964 20.62c37.312-1.964 70.695 7.855 101.134 28.474 20.619 12.765 39.275 26.511 59.894 40.257 5.891 3.928 6.873 8.837 4.909 15.71-1.963-1.964-3.927-3.927-5.891-4.909-25.529-19.638-51.057-38.293-80.514-53.022-21.601-10.8-45.166-15.71-69.713-14.728-3.927.982-6.873.982-10.801.982v-1.964l-.981 13.747c22.583-2.946 43.202-2.946 64.803 5.891 27.493 10.801 52.04 26.511 76.587 44.184 6.873 4.91 13.746 10.801 21.601 15.71 4.909 3.928 6.873 8.837 4.909 15.71-6.873-5.891-12.764-10.8-19.637-15.71-23.565-17.673-47.13-33.383-73.641-45.166-22.583-10.801-46.148-14.728-71.677-9.819-.982 0-1.964 0-2.945.982 0-.982-.982-1.964 0-2.945v-8.837l-.982 22.583c16.692-3.928 33.383-4.91 50.075-.982 24.547 6.873 46.149 17.674 66.768 32.402 15.71 10.8 31.42 22.583 46.148 33.384 5.891 3.927 7.855 7.855 5.891 15.71l-3.927-3.928c-21.601-16.692-43.203-33.384-66.768-47.13-19.637-10.801-39.275-19.637-61.858-21.601-11.782-.982-23.565.982-36.329.982v11.782l17.673-2.945c26.511-1.964 50.076 6.873 71.677 18.655 28.475 13.746 54.004 33.384 78.551 54.003.981.982 1.963 2.946 1.963 4.91v-84.442l-.982 3.928zm.982-77.568v7.855-7.855zm-176.737 17.674c.981-.982 1.963-2.946 2.945-4.91l-2.945 4.91zm8.836 5.891c.982-2.946.982-5.891.982-7.855l-.982 7.855zm167.901-1.964v4.909-4.909zm-167.901 2.946v-.982 2.945-1.963zm-172.81 17.673l2.946-2.945v-.982l-2.946 3.927zm.982 0c-4.909 5.892-7.855 12.765-11.782 18.656l11.782-18.656zm146.3 9.819c1.963-1.964 2.945-4.909 4.909-7.855l-4.909 7.855zm-113.898 169.865c-13.746 0-26.511-.982-39.275-5.892-20.619-7.855-31.42-22.583-33.384-44.184-1.964-20.619 1.964-41.239 7.855-60.876 4.91-17.674 11.783-34.366 20.62-50.076l-33.384 52.039 6.873-8.836c-.982 1.963-.982 2.945-1.964 3.927-3.927 15.71-7.855 30.438-10.8 45.166-1.964 7.855-1.964 15.71-.982 23.565.982 25.529 14.728 42.221 38.293 50.076 23.565 8.837 48.112 5.891 72.659 1.964 5.891-.982 10.8-1.964 16.692-1.964h-42.221v-1.964l3.927-5.891-.981.982c-.982.982-2.946.982-3.928 1.964zm103.097-151.209c-3.927 4.909-5.891 8.837-8.837 12.764l8.837-12.764zm203.248 93.278c-12.764-9.819-25.528-19.637-38.293-28.474-16.692-10.801-33.384-21.602-51.057-30.439-24.547-12.764-51.058-18.655-79.532-10.8v10.8c0-1.963 2.945-1.963 9.818-2.945 22.584-2.946 43.203 2.945 63.822 10.8 23.565 8.837 44.185 23.566 64.804 38.294 8.837 6.873 16.692 13.746 25.529 19.637 5.891 2.946 6.873 7.855 4.909 13.746-.981-.981-1.963-1.963-3.927-2.945-22.583-15.71-44.185-31.42-67.75-45.166-18.655-12.765-40.256-20.62-63.822-22.584-10.8-.982-21.601 0-33.383 0v11.783c9.818-1.964 19.637-1.964 29.456-.982 26.511 2.946 51.058 11.783 73.641 25.529 21.601 13.746 42.22 28.474 63.822 43.202 1.963.982 2.945.982 2.945 1.964v-31.42h-.982zm-230.74-53.021c1.963-1.964 3.927-4.91 5.891-8.837l-5.891 8.837zm-153.173 1.963c-3.928 4.91-6.873 8.837-8.837 13.747l8.837-13.747zm49.094 130.59c-13.747-1.964-27.493-5.891-39.275-12.764-17.674-9.819-26.511-24.547-28.475-44.185-1.964-18.655.982-37.311 7.855-54.985l1.964-4.909-46.148 73.64c3.927 35.348 27.492 54.004 57.93 65.786 27.493 10.801 55.967 12.765 85.424 11.783 24.547-1.964 50.075-4.91 75.604-2.946 16.692.982 32.402-3.927 48.112-8.837 13.746-4.909 27.493-9.819 41.239-13.746 24.547-6.873 48.112-4.909 70.695 5.891 28.474 12.765 53.021 30.438 75.604 52.04 17.674 16.691 34.366 36.329 52.04 54.003.982 1.964.982 2.945 2.945 3.927-7.855 1.964-13.746.982-18.655-5.891-26.511-31.42-55.967-59.894-90.333-81.496-15.71-9.818-31.42-17.673-49.094-20.619-18.655-2.946-35.347 0-53.021 6.873-11.782 3.928-24.547 9.819-37.311 14.728-20.62 7.855-42.221 11.783-65.786 9.819-15.71-.982-31.42-.982-47.13-.982-27.492 0-54.985-.982-81.496-9.819-18.655-5.891-36.329-13.746-51.057-26.51-11.783-9.819-19.638-20.62-24.547-34.366-.982-1.964-.982-3.928 0-5.891l-13.746 21.601 3.927-5.891c23.565 41.239 61.858 57.93 104.079 67.749 20.619 3.928 41.239 4.91 61.858 7.855 12.765.982 26.511 1.964 39.275 3.928 17.674 1.963 36.33 0 53.022-5.892l43.202-17.673c8.837-3.928 18.656-7.855 28.475-10.801 22.583-6.873 43.202-4.909 64.803 4.909 22.583 9.819 43.203 25.529 61.859 43.203 13.746 12.764 27.492 27.492 40.256 41.239 1.964.982 1.964 2.945 3.928 4.909h41.239c-1.964-1.964-3.928-2.945-4.91-4.909-31.42-38.293-66.767-73.641-108.988-101.133-18.656-11.783-38.293-21.602-60.876-24.547-17.674-2.946-34.366 0-51.058 4.909l-49.094 11.783c-4.909 1.963-10.8 1.963-16.691 1.963-25.529-.982-50.076 2.946-75.605 5.892-31.42 4.909-62.84 5.891-93.278-6.874-9.819-4.909-19.638-9.818-28.475-16.692-18.655-14.728-23.565-35.347-21.601-57.93 0-.982.982-1.964.982-2.946 3.928-6.873 7.855-12.764 12.764-18.655 0 2.945-.981 6.873-.981 10.8 0 8.837-.982 16.692 0 25.529 1.963 18.656 11.782 32.402 28.474 42.221 17.674 10.8 37.311 15.71 58.913 16.692 23.565.981 47.13-3.928 70.695-9.819 17.673-3.928 35.347-5.892 53.021-5.892 21.601.982 41.239-4.909 61.858-9.818 33.384-7.855 63.822-2.946 94.26 12.764 29.456 16.692 55.967 36.33 80.514 59.895 16.692 16.691 33.384 35.347 50.076 53.021v-13.746l-8.837-8.837c-30.438-32.402-61.858-62.84-100.152-86.405-13.746-8.837-29.456-16.692-44.184-23.565-24.547-9.819-51.057-8.837-76.586-4.91-7.855 1.964-14.728 2.946-23.565 3.928v4.909h-64.804v.982c-33.384 8.837-65.786 19.638-101.133 15.71zm92.296-113.898c-2.946 3.928-4.909 7.855-7.855 11.783l7.855-11.783zm243.505 70.695l-.982 3.928c-4.909-3.928-9.818-7.855-15.71-10.801-18.655-11.782-37.311-24.547-56.948-35.347-29.457-16.692-61.859-23.565-96.224-21.601v11.782c11.782.982 23.565.982 35.347 1.964 31.42 3.927 58.913 15.71 85.423 31.42 14.729 8.837 28.475 19.637 43.203 28.474 4.909 2.946 6.873 6.873 4.909 13.746l-6.873-5.891c-26.51-17.674-54.003-34.365-84.441-45.166-23.565-8.837-47.13-9.819-71.677-10.801h-5.891v14.728h2.945c48.112-2.945 92.297 8.837 133.535 34.366 41.239 25.529 77.569 56.949 111.934 91.315.982 1.963 2.946 2.945 4.91 4.909v-10.801l-2.946-1.963c-23.565-23.565-47.13-45.167-73.641-65.786-.981 0-.981-.982-1.963-1.964h-4.91v-26.511zm0-36.329h.982l-.982-5.891v5.891zm-48.112 48.112c-28.474-14.728-58.912-22.583-91.314-21.601h-30.438v16.692c40.257-5.892 79.532-6.874 116.843 12.764 35.347 18.656 66.768 41.239 95.242 68.731 13.746 12.765 27.492 27.493 41.239 41.239v-11.782c-11.783-11.783-23.565-23.565-35.348-34.366-29.456-27.493-60.876-52.04-96.224-71.677zm48.112-16.692v4.909-4.909zm-439.88 4.909c-2.946 3.928-4.91 7.855-7.855 10.801l-.982 2.946 8.837-13.747zm137.462 18.656c1.964-1.964 2.946-4.909 3.928-6.873l-3.928 6.873zm38.294 7.855h29.456v-.982l-29.456.982zm269.034 0h7.855-7.855zm16.692 4.909c19.637 17.674 39.275 34.366 57.93 52.04l3.928 2.946v-9.819c-.982-.982-1.964-.982-1.964-1.964l-51.058-45.166c0-.982-.981-.982-1.963-1.964 5.891-.982 10.8-.982 15.71 2.946 12.764 12.764 25.528 24.547 39.275 37.311v-9.819l-33.384-31.42h-37.311c2.945.982 5.891 1.964 8.837 4.909zm61.858-4.909h-26.511c2.946 0 4.909.982 6.873 3.928l19.638 17.673v-8.837c-3.928-3.927-7.855-7.855-12.765-11.782 4.91-.982 8.837-1.964 12.765 1.964v-2.946zm-545.923 8.837l-.982.982-1.964 2.945 2.946-3.927zm-18.656 44.184c36.329 34.366 80.514 57.931 127.644 73.641 14.728 4.909 29.456 9.819 43.202 13.746.982.982 1.964.982 1.964 1.964h70.695c32.402-8.837 60.877-25.529 91.315-36.329 20.619-7.855 41.239-11.783 62.84-4.91 16.692 5.892 31.42 15.71 44.184 27.493 12.765 13.746 24.547 28.474 37.312 42.221.981.981 1.963 2.945 1.963 3.927v-26.511c-.982 0-.982.982-1.963.982 0-.982-.982-1.963-1.964-3.927-13.747-16.692-29.457-31.42-48.112-44.185-13.746-9.818-28.475-16.692-46.148-18.655-15.71-.982-30.438 2.945-44.185 8.837-17.674 6.873-34.365 14.728-51.057 21.601-18.656 8.837-37.312 15.71-57.931 17.674-10.801.981-22.583 1.963-32.402-.982-41.239-8.837-81.496-19.638-118.807-37.312-22.583-10.8-44.184-24.546-62.84-41.238-2.946-1.964-4.909-3.928-6.873-5.892-9.819-10.8-8.837-5.891-.982-18.655 40.257 46.148 93.278 65.785 151.209 78.55 10.801 1.964 22.583 3.927 33.384 6.873 28.474 7.855 54.985 4.909 81.495-5.891 19.638-7.855 38.294-16.692 56.949-25.529 9.819-3.928 20.62-6.873 30.438-9.819 18.656-3.927 36.33-.982 54.004 7.855 30.438 14.728 54.003 38.293 76.586 63.822h17.674c-.982 0-2.946-1.964-3.928-3.927-19.637-22.584-40.257-42.221-64.804-59.895-5.891-3.927-12.764-6.873-18.655-10.8-24.547-12.765-50.076-15.71-75.605-4.91-18.655 6.873-36.329 14.728-54.985 22.583-7.855 3.928-15.71 6.873-23.565 8.837-15.71 5.891-32.402 7.855-48.112 4.91-30.438-4.91-59.894-8.837-89.35-14.729-31.421-6.873-60.877-19.637-86.406-38.293a169.29 169.29 0 0 1-26.51-26.51c-.982-2.946-1.964-4.91-1.964-6.874l-15.71 25.529v14.728zm32.402 42.221c-10.801-7.855-21.601-16.692-32.402-25.529v17.674c.982.982 1.964.982 1.964 1.964 24.547 21.601 52.039 37.311 81.495 50.076.982 0 2.946.981 3.928 2.945h41.239s-.982 0-1.964-.982c-32.402-12.764-64.804-25.529-94.26-46.148zm-32.402 30.438c7.855 4.91 15.71 10.801 24.547 16.692h31.42c-.982 0-2.946-.982-3.928-1.964-18.655-9.818-36.329-20.619-52.039-34.365v19.637zm478.174 72.659c-15.71-25.529-33.384-49.094-57.931-67.749-22.583-16.692-48.112-22.584-74.623-13.747-15.71 4.91-31.42 10.801-46.148 17.674-8.837 3.928-16.692 6.873-25.529 7.855h37.312v2.946c0-.982.982-2.946 1.963-2.946 18.656-6.873 37.312-13.746 56.949-11.782 16.692.981 31.42 6.873 44.185 16.692 36.329 30.438 57.93 68.731 65.785 114.879l.982 6.873v-64.804c-1.963-2.945-2.945-3.927-2.945-5.891zm-219.941-55.967c4.91.982 10.801.982 15.71 0h-15.71zm197.357 106.043c-6.873-29.457-20.619-54.985-42.22-76.587-19.638-18.655-42.221-26.51-68.732-22.583-9.818 1.964-18.655 3.928-27.492 6.873-1.964 0-3.928.982-5.891.982v17.674c0-.982 1.963-1.964 2.945-1.964 13.747-2.945 27.493-4.909 41.239-3.927 22.583 1.964 40.257 13.746 54.003 31.42 25.529 33.384 33.384 70.695 21.602 111.934h22.583c6.873-20.62 7.855-42.221 1.963-63.822zm-61.858-27.493c-12.764-19.637-31.42-30.438-55.967-31.42-7.855-.982-16.692 0-26.51 0v20.62c25.528 0 47.13 7.855 61.858 29.456 7.855 11.782 11.782 24.547 12.764 38.293.982 10.801 0 22.583 0 34.366h22.583c6.874-32.402 4.91-62.84-14.728-91.315zm-40.257 47.13c-5.891-17.673-19.637-28.474-37.311-33.384-3.927-.981-4.909-2.945-4.909-6.873v39.275c14.728 11.783 21.601 27.493 23.565 45.167h27.492c0-3.928 0-7.855-.982-11.783-1.963-10.8-3.927-22.583-7.855-32.402zm127.644 18.656a53.384 53.384 0 0 0 0-17.674v17.674zm0 25.529v-25.529c-.982 8.837-1.963 16.692-4.909 25.529h4.909z" fill="url(#_Linear3)"/><path d="M1231.56 750.455c.476-.476.952-.714 1.428-.714.595 0 1.07.238 1.427.714.476.357.714.832.714 1.427 0 .476-.238.952-.714 1.428l-5.531 5.531c-.476.476-.952.714-1.428.714-.237 0-.713-.238-1.427-.714-.476-.476-.714-.952-.714-1.427 0-.595.238-1.071.714-1.428l5.531-5.531zm25.338 0c.476-.476.952-.714 1.427-.714.476 0 .893.238 1.249.714.476.357.714.832.714 1.427 0 .476-.238.952-.714 1.428l-30.69 30.69c-.476.476-.952.714-1.428.714-.237 0-.713-.238-1.427-.714-.476-.476-.714-.951-.714-1.427 0-.476.238-.892.714-1.249l30.869-30.869zm-12.669 0c.476-.476.952-.714 1.428-.714.594 0 1.07.238 1.427.714.476.357.714.773.714 1.249 0 .476-.238.951-.714 1.427l-18.2 18.379c-.476.476-.952.714-1.428.714-.237 0-.713-.238-1.427-.714-.476-.476-.714-.952-.714-1.428 0-.594.238-1.07.714-1.427l18.2-18.2zm25.159 0c.476-.476.952-.714 1.428-.714.594 0 1.07.238 1.427.714.476.357.714.832.714 1.427 0 .476-.238.952-.714 1.428l-43.359 43.359c-.476.476-.952.714-1.428.714-.237 0-.713-.238-1.427-.714-.476-.476-.714-.952-.714-1.427 0-.595.238-1.071.714-1.428l43.359-43.359zm12.669 0c.476-.476.952-.714 1.427-.714.595 0 1.071.238 1.428.714.476.357.714.773.714 1.249 0 .476-.238.951-.714 1.427l-26.23 26.23c-.476.476-.892.714-1.249.714-.238 0-.714-.238-1.427-.714-.476-.714-.714-1.19-.714-1.428 0-.475.238-.951.714-1.427l26.051-26.051zm12.669 0c.476-.476.951-.714 1.427-.714.476 0 .892.238 1.249.714.476.357.714.832.714 1.427 0 .476-.238.952-.714 1.428l-26.051 26.051c-.476.476-.952.714-1.427.714-.238 0-.714-.238-1.428-.714-.476-.714-.714-1.19-.714-1.428 0-.356.238-.773.714-1.249l26.23-26.229zm9.457 3.033c.476-.476.951-.714 1.427-.714.595 0 1.071.238 1.428.714.475.357.713.833.713 1.428 0 .475-.238.951-.713 1.427l-23.018 23.018c-.476.476-.952.714-1.428.714-.238 0-.713-.238-1.427-.714-.476-.714-.714-1.19-.714-1.428 0-.475.238-.951.714-1.427l23.018-23.018zm0 12.669c.476-.476.951-.714 1.427-.714.595 0 1.071.238 1.428.714.475.357.713.773.713 1.249 0 .476-.238.952-.713 1.427l-10.528 10.528c-.476.476-.892.714-1.249.714-.238 0-.714-.238-1.427-.714-.476-.714-.714-1.19-.714-1.428 0-.475.238-.951.714-1.427l10.349-10.349zm1.249 11.598c.238-.238.773.119 1.606 1.071l-1.071-.536c-.476-.238-.654-.416-.535-.535zm-53.352 2.677c.476-.476.952-.714 1.428-.714.594 0 1.07.238 1.427.714.476.356.714.773.714 1.249 0 .475-.238.951-.714 1.427l-26.051 26.23c-.476.476-.952.713-1.428.713-.237 0-.713-.237-1.427-.713-.476-.476-.714-.952-.714-1.428 0-.595.238-1.07.714-1.427l26.051-26.051zm26.587 11.241c.476-.476.951-.714 1.427-.714.595 0 1.071.238 1.428.714.476.357.713.833.713 1.427 0 .476-.237.952-.713 1.428l-52.638 52.638c-.476.475-.952.713-1.428.713-.237 0-.713-.238-1.427-.713-.476-.476-.714-.952-.714-1.428 0-.595.238-1.071.714-1.427l52.638-52.638zm-25.159 0c.475-.476.951-.714 1.427-.714.476 0 .892.238 1.249.714.476.357.714.833.714 1.427 0 .476-.238.952-.714 1.428l-27.3 27.3c-.476.476-.952.714-1.428.714-.237 0-.713-.238-1.427-.714-.476-.357-.714-.773-.714-1.249 0-.595.238-1.071.714-1.427l27.479-27.479zm12.668 0c.476-.476.952-.714 1.428-.714s.892.238 1.249.714c.476.357.714.833.714 1.427 0 .476-.238.952-.714 1.428l-39.969 39.969c-.476.476-.952.714-1.428.714-.237 0-.713-.238-1.427-.714-.476-.476-.714-.952-.714-1.428 0-.475.238-.892.714-1.249l40.147-40.147zm12.669 12.49c.476-.476.952-.714 1.428-.714.594 0 1.07.238 1.427.714.476.357.714.773.714 1.249 0 .476-.238.952-.714 1.428l-13.739 13.739c-.476.476-.892.714-1.249.714-.238 0-.714-.238-1.428-.714-.476-.714-.713-1.19-.713-1.427 0-.476.237-.952.713-1.428l13.561-13.561zm0 12.49c.476-.475.952-.713 1.428-.713.594 0 1.07.238 1.427.713.476.357.714.833.714 1.428 0 .476-.238.952-.714 1.427l-1.07 1.071c-.476.476-.952.714-1.428.714-.238 0-.714-.238-1.427-.714-.476-.714-.714-1.19-.714-1.427 0-.476.238-.952.714-1.428l1.07-1.071zm-26.765 14.275c.476-.476.952-.714 1.428-.714.594 0 1.07.238 1.427.714.476.357.714.773.714 1.249 0 .476-.238.952-.714 1.428l-26.051 26.229c-.476.476-.952.714-1.428.714-.237 0-.713-.238-1.427-.714-.476-.476-.714-.951-.714-1.427 0-.595.238-1.071.714-1.428l26.051-26.051zm0 12.49c.476-.475.952-.713 1.428-.713.594 0 1.07.238 1.427.713.476.357.714.833.714 1.428 0 .476-.238.952-.714 1.427l-26.051 26.052c-.476.475-.952.713-1.428.713-.237 0-.713-.238-1.427-.713-.476-.476-.714-.952-.714-1.428s.238-.892.714-1.249l26.051-26.23zm0 12.669c.476-.476.952-.714 1.428-.714.594 0 1.07.238 1.427.714.476.357.714.833.714 1.428 0 .476-.238.951-.714 1.427l-26.051 26.051a1.696 1.696 0 0 1-1.428.714c-.475 0-.951-.238-1.427-.714-.476-.475-.714-.951-.714-1.427 0-.595.238-1.071.714-1.428l26.051-26.051zm0 12.669c.476-.476.952-.714 1.428-.714.594 0 1.07.238 1.427.714.476.357.714.773.714 1.249 0 .476-.238.952-.714 1.427l-26.051 26.23a1.696 1.696 0 0 1-1.428.714c-.475 0-.951-.238-1.427-.714a1.696 1.696 0 0 1-.714-1.427c0-.476.238-.952.714-1.428l26.051-26.051zm12.134.535c.475-.476.951-.713 1.427-.713.476 0 .892.237 1.249.713.476.357.714.833.714 1.428 0 .476-.238.951-.714 1.427l-26.051 26.051a1.696 1.696 0 0 1-1.428.714c-.475 0-.951-.238-1.427-.714-.476-.475-.714-.892-.714-1.249 0-.238.238-.713.714-1.427l26.23-26.23zm12.668 0c.476-.476.952-.713 1.428-.713s.892.237 1.249.713c.476.357.714.833.714 1.428 0 .476-.238.951-.714 1.427l-26.051 26.051a1.696 1.696 0 0 1-1.428.714c-.476 0-.951-.238-1.427-.714-.476-.475-.714-.951-.714-1.427 0-.238.238-.714.714-1.427l26.229-26.052zm12.491 0c.476-.476.951-.713 1.427-.713.595 0 1.071.237 1.428.713.475.357.713.833.713 1.428 0 .476-.238.951-.713 1.427l-26.23 26.051c-.357.476-.773.714-1.249.714-.476 0-.952-.238-1.428-.714-.475-.475-.713-.951-.713-1.427 0-.238.238-.714.713-1.427l26.052-26.052zm12.668 0c.476-.476.952-.713 1.428-.713.595 0 1.071.237 1.427.713.476.357.714.773.714 1.249 0 .476-.238.952-.714 1.428l-26.229 26.229c-.357.476-.773.714-1.249.714-.476 0-.952-.238-1.428-.714-.476-.475-.713-.951-.713-1.427 0-.238.237-.714.713-1.427l26.051-26.052zm2.142 10.349c.476-.475.951-.713 1.427-.713.595 0 1.071.238 1.428.713.475.357.713.833.713 1.428 0 .476-.238.952-.713 1.427l-15.702 15.702a1.696 1.696 0 0 1-1.428.714c-.476 0-.952-.238-1.427-.714-.476-.475-.714-.951-.714-1.427 0-.238.238-.714.714-1.427l15.702-15.703zm0 12.669c.713-.476 1.189-.714 1.427-.714.476 0 .952.238 1.428.714.475.476.713.952.713 1.428 0 .594-.238 1.07-.713 1.427l-3.034 3.033a1.695 1.695 0 0 1-1.427.714c-.476 0-.952-.238-1.428-.714-.475-.475-.713-.951-.713-1.427 0-.238.238-.714.713-1.427l3.034-3.034z" fill="url(#_Linear4)"/><path d="M1333.98 750.455c.476-.476.952-.714 1.427-.714.595 0 1.071.238 1.428.714.476.357.714.832.714 1.427 0 .476-.238.952-.714 1.428l-5.531 5.531c-.476.476-.952.714-1.428.714-.238 0-.714-.238-1.427-.714-.476-.476-.714-.952-.714-1.427 0-.595.238-1.071.714-1.428l5.531-5.531zm25.338 0c.475-.476.951-.714 1.427-.714.476 0 .892.238 1.249.714.476.357.714.832.714 1.427 0 .476-.238.952-.714 1.428l-30.69 30.69c-.476.476-.952.714-1.428.714-.238 0-.714-.238-1.427-.714-.476-.476-.714-.951-.714-1.427 0-.476.238-.892.714-1.249l30.869-30.869zm-12.669 0c.476-.476.951-.714 1.427-.714.595 0 1.071.238 1.428.714.476.357.713.773.713 1.249 0 .476-.237.951-.713 1.427l-18.2 18.379c-.476.476-.952.714-1.428.714-.238 0-.714-.238-1.427-.714-.476-.476-.714-.952-.714-1.428 0-.594.238-1.07.714-1.427l18.2-18.2zm24.267.892c.476-.476.951-.714 1.427-.714.595 0 1.071.238 1.428.714.356.476.535.952.535 1.427 0 .595-.179 1.071-.535 1.428l-42.467 42.467c-.476.476-.952.714-1.428.714-.238 0-.714-.238-1.427-.714-.476-.476-.714-.952-.714-1.427 0-.595.238-1.071.714-1.428l42.467-42.467zm9.814 3.033c.475-.476.951-.713 1.427-.713.476 0 .892.237 1.249.713.476.357.714.774.714 1.249 0 .476-.238.952-.714 1.428l-22.304 22.304c-.476.476-.892.714-1.249.714-.238 0-.714-.238-1.428-.714-.475-.714-.713-1.19-.713-1.428 0-.475.238-.951.713-1.427l22.305-22.126zm8.386 4.104c.476-.476.952-.713 1.427-.713.476 0 .893.237 1.249.713.476.357.714.833.714 1.428 0 .476-.238.951-.714 1.427l-18.914 18.914c-.475.476-.951.714-1.427.714-.238 0-.714-.238-1.427-.714-.476-.714-.714-1.189-.714-1.427 0-.357.238-.774.714-1.249l19.092-19.093zm7.137 5.353c.476-.476.952-.713 1.428-.713.594 0 1.07.237 1.427.713.476.357.714.833.714 1.428 0 .476-.238.951-.714 1.427l-17.843 17.844c-.476.475-.892.713-1.249.713-.238 0-.714-.238-1.428-.713-.476-.714-.713-1.19-.713-1.428 0-.476.237-.952.713-1.427l17.665-17.844zm6.245 6.424c.476-.476.952-.714 1.428-.714.595 0 1.07.238 1.427.714.476.357.714.833.714 1.427 0 .476-.238.952-.714 1.428l-18.021 17.843c-.476.476-.893.714-1.249.714-.238 0-.714-.238-1.428-.714-.476-.714-.714-1.189-.714-1.427 0-.476.238-.952.714-1.428l17.843-17.843zm5.175 7.494c.476-.476.952-.714 1.427-.714.595 0 1.071.238 1.428.714.476.357.714.773.714 1.249 0 .476-.238.952-.714 1.428l-19.449 19.449c-.476.476-.952.714-1.428.714-.238 0-.714-.238-1.427-.714-.476-.476-.714-.892-.714-1.249 0-.476.238-.952.714-1.428l19.449-19.449zm-53.173 2.677c.476-.476.951-.714 1.427-.714.595 0 1.071.238 1.428.714.476.356.714.773.714 1.249 0 .475-.238.951-.714 1.427l-26.051 26.23c-.476.476-.952.713-1.428.713-.238 0-.714-.237-1.427-.713-.476-.476-.714-.952-.714-1.428 0-.595.238-1.07.714-1.427l26.051-26.051zm57.098 5.888c.476-.476.952-.714 1.428-.714.595 0 1.071.238 1.427.714.476.357.714.833.714 1.427 0 .476-.238.952-.714 1.428l-26.408 26.408c-.476.476-.892.714-1.249.714-.238 0-.713-.238-1.427-.714-.476-.714-.714-1.19-.714-1.428 0-.475.238-.951.714-1.427l26.229-26.408zm-57.098 6.602c.476-.476.951-.714 1.427-.714.595 0 1.071.238 1.428.714.476.357.714.833.714 1.427 0 .476-.238.952-.714 1.428l-26.051 26.051c-.476.476-.952.714-1.428.714-.238 0-.714-.238-1.427-.714-.476-.357-.714-.773-.714-1.249 0-.595.238-1.071.714-1.427l26.051-26.23zm59.775 3.569c.476-.476.952-.714 1.427-.714.476 0 .893.238 1.249.714.476.356.714.832.714 1.427 0 .476-.238.952-.714 1.427l-85.647 85.648a1.696 1.696 0 0 1-1.428.714c-.476 0-.952-.238-1.427-.714-.476-.475-.714-.951-.714-1.427 0-.595.238-1.071.714-1.428l85.826-85.647zm-59.775 9.1c.476-.476.951-.714 1.427-.714.595 0 1.071.238 1.428.714.476.356.714.832.714 1.427 0 .476-.238.952-.714 1.428l-26.051 26.051c-.476.476-.952.714-1.428.714-.238 0-.714-.238-1.427-.714-.476-.476-.714-.952-.714-1.428 0-.475.238-.892.714-1.249l26.051-26.229zm59.953 3.211c.476-.475.952-.713 1.428-.713.595 0 1.07.238 1.427.713.476.357.714.833.714 1.428 0 .476-.238.952-.714 1.427l-45.143 44.966c-.476.475-.892.713-1.249.713-.238 0-.714-.238-1.428-.713-.476-.714-.714-1.19-.714-1.428 0-.476.238-.952.714-1.427l44.965-44.966zm-59.953 9.457c.476-.475.951-.713 1.427-.713.595 0 1.071.238 1.428.713.476.357.714.774.714 1.249 0 .476-.238.952-.714 1.428l-26.051 26.23c-.476.475-.952.713-1.428.713-.238 0-.714-.238-1.427-.713-.476-.476-.714-.952-.714-1.428 0-.595.238-1.071.714-1.427l26.051-26.052zm19.092 6.246c.476-.476.952-.714 1.428-.714.475 0 .892.238 1.249.714.476.356.713.832.713 1.427 0 .476-.237.952-.713 1.427l-44.965 44.966c-.476.475-.952.713-1.428.713-.238 0-.714-.238-1.427-.713-.476-.476-.714-.952-.714-1.428s.238-.892.714-1.249l45.143-45.143zm35.687 2.141c.476-.476.951-.714 1.427-.714.595 0 1.071.238 1.428.714.476.357.713.773.713 1.249 0 .476-.237.951-.713 1.427l-30.869 30.869c-.476.476-.952.714-1.428.714-.238 0-.713-.238-1.427-.714-.476-.714-.714-1.189-.714-1.427 0-.357.238-.773.714-1.249l30.869-30.869zm-51.924 1.427c.476-.476.951-.714 1.427-.714.595 0 1.071.238 1.428.714.476.357.713.773.713 1.249 0 .476-.237.952-.713 1.428l-28.906 29.084c-.476.476-.952.714-1.428.714-.238 0-.714-.238-1.427-.714-.476-.476-.714-.951-.714-1.427 0-.595.238-1.071.714-1.428l28.906-28.906zm44.073 19.093c.476-.476.951-.714 1.427-.714.476 0 .892.238 1.249.714.476.356.714.773.714 1.249 0 .475-.238.951-.714 1.427l-18.2 18.2c-.952.952-1.844 1.011-2.676.179-.476-.714-.714-1.19-.714-1.428 0-.476.238-.951.714-1.427l18.2-18.2zm4.639 7.851c.476-.476.952-.714 1.427-.714.595 0 1.071.238 1.428.714.476.356.714.832.714 1.427 0 .476-.238.952-.714 1.428l-18.379 18.2c-.475.476-.892.713-1.249.713-.238 0-.713-.237-1.427-.713-.476-.714-.714-1.19-.714-1.428 0-.476.238-.951.714-1.427l18.2-18.2zm4.639 8.029c.476-.476.952-.714 1.428-.714.595 0 1.07.238 1.427.714.476.357.714.773.714 1.249 0 .476-.238.952-.714 1.428l-18.2 18.2c-.476.476-.952.714-1.427.714-.238 0-.714-.238-1.428-.714-.476-.476-.714-.892-.714-1.249 0-.476.238-.952.714-1.428l18.2-18.2zm-56.206 5.71c.476-.476.951-.714 1.427-.714.595 0 1.071.238 1.428.714.476.357.714.773.714 1.249 0 .476-.238.952-.714 1.427l-26.051 26.23a1.696 1.696 0 0 1-1.428.714c-.476 0-.952-.238-1.427-.714a1.696 1.696 0 0 1-.714-1.427c0-.476.238-.952.714-1.428l26.051-26.051zm61.024 2.141c.476-.476.952-.714 1.427-.714.476 0 .893.238 1.249.714.476.357.714.833.714 1.428 0 .475-.238.951-.714 1.427l-18.2 18.2a1.695 1.695 0 0 1-1.427.714c-.476 0-.952-.238-1.428-.714-.475-.476-.713-.951-.713-1.427 0-.238.238-.714.713-1.428l18.379-18.2zm4.639 8.03c.476-.476.952-.714 1.428-.714s.892.238 1.249.714c.476.357.713.773.713 1.249 0 .476-.237.951-.713 1.427l-16.416 16.594a1.696 1.696 0 0 1-1.428.714c-.475 0-.951-.238-1.427-.714-.476-.475-.714-.951-.714-1.427 0-.238.238-.714.714-1.427l16.594-16.416zm-65.663 2.319c.476-.476.951-.713 1.427-.713.595 0 1.071.237 1.428.713.476.357.714.833.714 1.428 0 .476-.238.951-.714 1.427l-14.096 14.096a1.696 1.696 0 0 1-1.428.714c-.476 0-.952-.238-1.427-.714-.476-.475-.714-.892-.714-1.249 0-.238.238-.713.714-1.427l14.096-14.275zm70.303 5.532c.713-.476 1.189-.714 1.427-.714.357 0 .773.238 1.249.714.476.476.714.951.714 1.427 0 .595-.238 1.071-.714 1.428l-8.565 8.564c-.357.476-.773.714-1.249.714-.476 0-.951-.238-1.427-.714-.476-.475-.714-.951-.714-1.427 0-.238.238-.714.714-1.427l8.565-8.565zm-70.303 7.137c.714-.476 1.189-.714 1.427-.714.476 0 .952.238 1.428.714s.714.952.714 1.428c0 .594-.238 1.07-.714 1.427l-1.428 1.427a1.695 1.695 0 0 1-1.427.714c-.476 0-.952-.238-1.428-.714-.475-.475-.713-.951-.713-1.427 0-.238.238-.714.713-1.427l1.428-1.428zm74.942.892c.714-.476 1.189-.714 1.427-.714.476 0 .952.238 1.428.714s.713.952.713 1.428c0 .475-.237.892-.713 1.249l-.714.713a1.696 1.696 0 0 1-1.427.714c-.476 0-.952-.238-1.428-.714-.476-.475-.714-.892-.714-1.249 0-.238.238-.713.714-1.427l.714-.714z" fill="url(#_Linear5)"/><path d="M1457.63 750.455c.476-.476.952-.714 1.428-.714.594 0 1.07.238 1.427.714.476.357.714.832.714 1.427 0 .476-.238.952-.714 1.428l-5.531 5.531c-.476.476-.952.714-1.428.714-.238 0-.713-.238-1.427-.714-.476-.476-.714-.952-.714-1.427 0-.595.238-1.071.714-1.428l5.531-5.531zm25.338 0c.476-.476.951-.714 1.427-.714.476 0 .892.238 1.249.714.476.357.714.832.714 1.427 0 .476-.238.952-.714 1.428l-30.69 30.69c-.476.476-.952.714-1.428.714-.238 0-.713-.238-1.427-.714-.476-.476-.714-.951-.714-1.427 0-.476.238-.892.714-1.249l30.869-30.869zm-12.669 0c.476-.476.952-.714 1.427-.714.595 0 1.071.238 1.428.714.476.357.714.773.714 1.249 0 .476-.238.951-.714 1.427l-18.2 18.379c-.476.476-.952.714-1.428.714-.238 0-.713-.238-1.427-.714-.476-.476-.714-.952-.714-1.428 0-.594.238-1.07.714-1.427l18.2-18.2zm24.267.892c.476-.476.952-.714 1.427-.714.595 0 1.071.238 1.428.714s.535.952.535 1.427c0 .595-.178 1.071-.535 1.428l-42.467 42.467c-.476.476-.952.714-1.428.714-.238 0-.713-.238-1.427-.714-.476-.476-.714-.952-.714-1.427 0-.595.238-1.071.714-1.428l42.467-42.467zm9.814 3.033c.476-.476.951-.713 1.427-.713.476 0 .892.237 1.249.713.476.357.714.774.714 1.249 0 .476-.238.952-.714 1.428l-22.304 22.304c-.476.476-.892.714-1.249.714-.238 0-.714-.238-1.427-.714-.476-.714-.714-1.19-.714-1.428 0-.475.238-.951.714-1.427l22.304-22.126zm8.386 4.104c.476-.476.952-.713 1.428-.713.475 0 .892.237 1.249.713.475.357.713.833.713 1.428 0 .476-.238.951-.713 1.427l-18.914 18.914c-.476.476-.952.714-1.428.714-.238 0-.714-.238-1.427-.714-.476-.714-.714-1.189-.714-1.427 0-.357.238-.774.714-1.249l19.092-19.093zm7.137 5.353c.476-.476.952-.713 1.428-.713.595 0 1.07.237 1.427.713.476.357.714.833.714 1.428 0 .476-.238.951-.714 1.427l-17.843 17.844c-.476.475-.892.713-1.249.713-.238 0-.714-.238-1.428-.713-.475-.714-.713-1.19-.713-1.428 0-.476.238-.952.713-1.427l17.665-17.844zm6.246 6.424c.475-.476.951-.714 1.427-.714.595 0 1.071.238 1.427.714.476.357.714.833.714 1.427 0 .476-.238.952-.714 1.428l-18.021 17.843c-.476.476-.892.714-1.249.714-.238 0-.714-.238-1.428-.714-.476-.714-.714-1.189-.714-1.427 0-.476.238-.952.714-1.428l17.844-17.843zm5.174 7.494c.476-.476.952-.714 1.428-.714.594 0 1.07.238 1.427.714.476.357.714.773.714 1.249 0 .476-.238.952-.714 1.428l-19.449 19.449c-.476.476-.952.714-1.428.714-.238 0-.713-.238-1.427-.714-.476-.476-.714-.892-.714-1.249 0-.476.238-.952.714-1.428l19.449-19.449zm-53.173 2.677c.476-.476.952-.714 1.427-.714.595 0 1.071.238 1.428.714.476.356.714.773.714 1.249 0 .475-.238.951-.714 1.427l-26.051 26.23c-.476.476-.952.713-1.428.713-.238 0-.713-.237-1.427-.713-.476-.476-.714-.952-.714-1.428 0-.595.238-1.07.714-1.427l26.051-26.051zm57.099 5.888c.475-.476.951-.714 1.427-.714.595 0 1.071.238 1.428.714.475.357.713.833.713 1.427 0 .476-.238.952-.713 1.428l-26.409 26.408c-.475.476-.892.714-1.249.714-.237 0-.713-.238-1.427-.714-.476-.714-.714-1.19-.714-1.428 0-.475.238-.951.714-1.427l26.23-26.408zm-57.099 6.602c.476-.476.952-.714 1.427-.714.595 0 1.071.238 1.428.714.476.357.714.833.714 1.427 0 .476-.238.952-.714 1.428l-26.051 26.051c-.476.476-.952.714-1.428.714-.238 0-.713-.238-1.427-.714-.476-.357-.714-.773-.714-1.249 0-.595.238-1.071.714-1.427l26.051-26.23zm59.775 3.569c.476-.476.952-.714 1.428-.714.475 0 .892.238 1.249.714.475.356.713.832.713 1.427 0 .476-.238.952-.713 1.427l-85.648 85.648a1.696 1.696 0 0 1-1.428.714c-.476 0-.951-.238-1.427-.714-.476-.475-.714-.951-.714-1.427 0-.595.238-1.071.714-1.428l85.826-85.647zm-59.775 9.1c.476-.476.952-.714 1.427-.714.595 0 1.071.238 1.428.714.476.356.714.832.714 1.427 0 .476-.238.952-.714 1.428l-26.051 26.051c-.476.476-.952.714-1.428.714-.238 0-.713-.238-1.427-.714-.476-.476-.714-.952-.714-1.428 0-.475.238-.892.714-1.249l26.051-26.229zm59.954 3.211c.475-.475.951-.713 1.427-.713.595 0 1.071.238 1.427.713.476.357.714.833.714 1.428 0 .476-.238.952-.714 1.427l-45.143 44.966c-.476.475-.892.713-1.249.713-.238 0-.714-.238-1.428-.713-.475-.714-.713-1.19-.713-1.428 0-.476.238-.952.713-1.427l44.966-44.966zm-59.954 9.457c.476-.475.952-.713 1.427-.713.595 0 1.071.238 1.428.713.476.357.714.774.714 1.249 0 .476-.238.952-.714 1.428l-26.051 26.23c-.476.475-.952.713-1.428.713-.238 0-.713-.238-1.427-.713-.476-.476-.714-.952-.714-1.428 0-.595.238-1.071.714-1.427l26.051-26.052zm19.092 6.246c.476-.476.952-.714 1.428-.714s.892.238 1.249.714c.476.356.714.832.714 1.427 0 .476-.238.952-.714 1.427l-44.965 44.966c-.476.475-.952.713-1.428.713-.238 0-.713-.238-1.427-.713-.476-.476-.714-.952-.714-1.428s.238-.892.714-1.249l45.143-45.143zm35.687 2.141c.476-.476.952-.714 1.427-.714.595 0 1.071.238 1.428.714.476.357.714.773.714 1.249 0 .476-.238.951-.714 1.427l-30.869 30.869c-.476.476-.952.714-1.427.714-.238 0-.714-.238-1.428-.714-.476-.714-.714-1.189-.714-1.427 0-.357.238-.773.714-1.249l30.869-30.869zm-51.924 1.427c.476-.476.952-.714 1.427-.714.595 0 1.071.238 1.428.714.476.357.714.773.714 1.249 0 .476-.238.952-.714 1.428l-28.906 29.084c-.476.476-.952.714-1.428.714-.238 0-.713-.238-1.427-.714-.476-.476-.714-.951-.714-1.427 0-.595.238-1.071.714-1.428l28.906-28.906zm44.073 19.093c.476-.476.952-.714 1.427-.714.476 0 .893.238 1.249.714.476.356.714.773.714 1.249 0 .475-.238.951-.714 1.427l-18.2 18.2c-.951.952-1.844 1.011-2.676.179-.476-.714-.714-1.19-.714-1.428 0-.476.238-.951.714-1.427l18.2-18.2zm4.639 7.851c.476-.476.952-.714 1.428-.714.594 0 1.07.238 1.427.714.476.356.714.832.714 1.427 0 .476-.238.952-.714 1.428l-18.378 18.2c-.476.476-.893.713-1.25.713-.237 0-.713-.237-1.427-.713-.476-.714-.714-1.19-.714-1.428 0-.476.238-.951.714-1.427l18.2-18.2zm4.639 8.029c.476-.476.952-.714 1.428-.714.595 0 1.071.238 1.427.714.476.357.714.773.714 1.249 0 .476-.238.952-.714 1.428l-18.2 18.2c-.476.476-.951.714-1.427.714-.238 0-.714-.238-1.428-.714-.476-.476-.713-.892-.713-1.249 0-.476.237-.952.713-1.428l18.2-18.2zm-56.206 5.71c.476-.476.952-.714 1.427-.714.595 0 1.071.238 1.428.714.476.357.714.773.714 1.249 0 .476-.238.952-.714 1.427l-26.051 26.23a1.696 1.696 0 0 1-1.428.714c-.476 0-.951-.238-1.427-.714a1.696 1.696 0 0 1-.714-1.427c0-.476.238-.952.714-1.428l26.051-26.051zm61.024 2.141c.476-.476.952-.714 1.428-.714.475 0 .892.238 1.249.714.475.357.713.833.713 1.428 0 .475-.238.951-.713 1.427l-18.201 18.2a1.693 1.693 0 0 1-1.427.714c-.476 0-.952-.238-1.427-.714-.476-.476-.714-.951-.714-1.427 0-.238.238-.714.714-1.428l18.378-18.2zm4.639 8.03c.476-.476.952-.714 1.428-.714s.892.238 1.249.714c.476.357.714.773.714 1.249 0 .476-.238.951-.714 1.427l-16.416 16.594a1.696 1.696 0 0 1-1.427.714c-.476 0-.952-.238-1.428-.714-.476-.475-.714-.951-.714-1.427 0-.238.238-.714.714-1.427l16.594-16.416zm-65.663 2.319c.476-.476.952-.713 1.427-.713.595 0 1.071.237 1.428.713.476.357.714.833.714 1.428 0 .476-.238.951-.714 1.427l-14.096 14.096a1.696 1.696 0 0 1-1.428.714c-.476 0-.951-.238-1.427-.714-.476-.475-.714-.892-.714-1.249 0-.238.238-.713.714-1.427l14.096-14.275zm70.303 5.532c.713-.476 1.189-.714 1.427-.714.357 0 .773.238 1.249.714.476.476.714.951.714 1.427 0 .595-.238 1.071-.714 1.428l-8.565 8.564c-.356.476-.773.714-1.249.714-.475 0-.951-.238-1.427-.714-.476-.475-.714-.951-.714-1.427 0-.238.238-.714.714-1.427l8.565-8.565zm-70.303 7.137c.714-.476 1.19-.714 1.427-.714.476 0 .952.238 1.428.714s.714.952.714 1.428c0 .594-.238 1.07-.714 1.427l-1.428 1.427a1.693 1.693 0 0 1-1.427.714c-.476 0-.952-.238-1.427-.714-.476-.475-.714-.951-.714-1.427 0-.238.238-.714.714-1.427l1.427-1.428zm74.942.892c.714-.476 1.19-.714 1.427-.714.476 0 .952.238 1.428.714s.714.952.714 1.428c0 .475-.238.892-.714 1.249l-.714.713a1.696 1.696 0 0 1-1.427.714c-.476 0-.952-.238-1.428-.714-.476-.475-.714-.892-.714-1.249 0-.238.238-.713.714-1.427l.714-.714z" fill="url(#_Linear6)"/><path d="M1632.68 749.563c.476-.476.952-.714 1.428-.714.594 0 1.07.238 1.427.714.476.356.714.773.714 1.249 0 .475-.238.951-.714 1.427l-56.92 57.099c-.476.476-.952.713-1.428.713-.237 0-.713-.237-1.427-.713-.476-.476-.714-.952-.714-1.428 0-.595.238-1.07.714-1.427l56.92-56.92zm-12.669 0c.476-.476.952-.714 1.428-.714.595 0 1.07.238 1.427.714.357.475.536.951.536 1.427 0 .595-.179 1.071-.536 1.428l-43.894 43.894c-.476.476-.952.714-1.428.714-.238 0-.713-.238-1.427-.714-.357-.595-.535-1.07-.535-1.427 0-.595.178-1.071.535-1.428l43.894-43.894zm23.197 2.141c.476-.476.951-.714 1.427-.714.476 0 .892.238 1.249.714.476.357.714.833.714 1.427 0 .476-.238.952-.714 1.428l-29.084 29.084c-.476.476-.893.714-1.249.714-.238 0-.714-.238-1.428-.714-.476-.713-.714-1.189-.714-1.427 0-.476.238-.952.714-1.428l29.085-29.084zm8.743 3.747c.476-.476.952-.714 1.427-.714.595 0 1.071.238 1.428.714.476.357.714.833.714 1.427 0 .476-.238.952-.714 1.428l-19.985 19.984c-.475.476-.892.714-1.249.714-.238 0-.713-.238-1.427-.714-.476-.713-.714-1.189-.714-1.427 0-.476.238-.952.714-1.428l19.806-19.984zm-50.497.178c.476-.475.952-.713 1.428-.713s.892.238 1.249.713c.476.357.714.833.714 1.428 0 .476-.238.951-.714 1.427l-19.093 19.093c-.475.475-.951.713-1.427.713-.238 0-.714-.238-1.427-.713-.476-.714-.714-1.19-.714-1.428 0-.357.238-.773.714-1.249l19.27-19.271zm58.17 4.818c.475-.476.951-.714 1.427-.714.595 0 1.071.238 1.427.714.476.357.714.773.714 1.249 0 .476-.238.952-.714 1.428l-18.021 18.021c-.476.476-.952.714-1.428.714-.238 0-.713-.238-1.427-.714-.357-.357-.536-.832-.536-1.427 0-.476.179-.892.536-1.249l18.022-18.022zm6.602 6.067c.475-.476.951-.714 1.427-.714.595 0 1.071.238 1.428.714.475.357.713.773.713 1.249 0 .476-.238.951-.713 1.427l-17.665 17.665c-.476.476-.952.714-1.428.714-.238 0-.714-.238-1.427-.714-.476-.714-.714-1.189-.714-1.427 0-.357.238-.774.714-1.249l17.665-17.665zm5.531 6.959c.476-.476.952-.714 1.427-.714.595 0 1.071.238 1.428.714.476.357.714.832.714 1.427 0 .476-.238.952-.714 1.428l-18.557 18.557c-.476.475-.952.713-1.428.713-.237 0-.713-.238-1.427-.713-.476-.714-.714-1.19-.714-1.428 0-.357.238-.773.714-1.249l18.557-18.735zm4.461 8.208c.476-.476.951-.714 1.427-.714.595 0 1.071.238 1.428.714.476.356.713.832.713 1.427 0 .476-.237.952-.713 1.428l-21.591 21.59c-.475.476-.951.714-1.427.714-.238 0-.714-.238-1.428-.714-.475-.714-.713-1.19-.713-1.428 0-.475.238-.951.713-1.427l21.591-21.59zm-68.875 5.888c.475-.476.951-.714 1.427-.714.595 0 1.071.238 1.428.714.475.357.713.773.713 1.249 0 .476-.238.952-.713 1.427l-31.583 31.583c-.476.476-.952.714-1.428.714-.237 0-.713-.238-1.427-.714-.476-.357-.714-.773-.714-1.249 0-.595.238-1.071.714-1.427l31.583-31.583zm72.087 3.569c.475-.476.951-.714 1.427-.714.476 0 .892.238 1.249.714.476.356.714.832.714 1.427 0 .476-.238.952-.714 1.427l-24.624 24.803c-.475.476-.951.713-1.427.713-.238 0-.714-.237-1.428-.713-.475-.714-.713-1.19-.713-1.428 0-.476.238-.951.713-1.427l24.803-24.802zm1.249 11.241c.475-.476.951-.714 1.427-.714.595 0 1.071.238 1.428.714.475.357.713.833.713 1.427 0 .476-.238.952-.713 1.428l-26.052 26.051c-.475.476-.951.714-1.427.714-.238 0-.714-.238-1.428-.714-.475-.476-.713-.892-.713-1.249 0-.476.238-.952.713-1.427l26.052-26.23zm-78.868 3.212c.476-.476.952-.714 1.428-.714.594 0 1.07.238 1.427.714.476.356.714.832.714 1.427 0 .476-.238.952-.714 1.428l-26.051 26.051c-.476.476-.952.714-1.428.714-.237 0-.713-.238-1.427-.714-.476-.476-.714-.952-.714-1.428 0-.475.238-.892.714-1.249l26.051-26.229zm78.868 9.457c.475-.476.951-.714 1.427-.714.595 0 1.071.238 1.428.714.475.356.713.832.713 1.427 0 .476-.238.952-.713 1.428l-26.052 26.051c-.475.476-.951.713-1.427.713-.238 0-.714-.237-1.428-.713-.475-.714-.713-1.19-.713-1.428 0-.357.238-.773.713-1.249l26.052-26.229zm-78.868 3.211c.476-.475.952-.713 1.428-.713.594 0 1.07.238 1.427.713.476.357.714.774.714 1.249 0 .476-.238.952-.714 1.428l-26.051 26.23c-.476.475-.952.713-1.428.713-.237 0-.713-.238-1.427-.713-.476-.476-.714-.952-.714-1.428 0-.595.238-1.071.714-1.427l26.051-26.052zm78.868 9.457c.475-.475.951-.713 1.427-.713.595 0 1.071.238 1.428.713.475.357.713.774.713 1.249 0 .476-.238.952-.713 1.428l-66.734 66.734c-.357.476-.774.714-1.249.714-.476 0-.952-.238-1.428-.714s-.714-.952-.714-1.428c0-.238.238-.713.714-1.427l66.556-66.556zm-78.868 3.212c.476-.476.952-.714 1.428-.714.594 0 1.07.238 1.427.714.476.357.714.773.714 1.249 0 .476-.238.952-.714 1.428l-24.624 24.623c-.475.476-.892.714-1.249.714-.238 0-.713-.238-1.427-.714-.476-.713-.714-1.189-.714-1.427 0-.476.238-.952.714-1.428l24.445-24.445zm78.868 9.457c.475-.476.951-.714 1.427-.714.595 0 1.071.238 1.428.714.475.357.713.773.713 1.249 0 .476-.238.952-.713 1.428l-56.207 56.206c-.357.476-.773.714-1.249.714-.476 0-.952-.238-1.427-.714-.476-.476-.714-.952-.714-1.427 0-.238.238-.714.714-1.428l56.028-56.028zm-78.868 3.033c.476-.475.952-.713 1.428-.713.594 0 1.07.238 1.427.713.476.357.714.833.714 1.428 0 .476-.238.952-.714 1.427l-21.412 21.412c-.476.476-.892.714-1.249.714-.238 0-.714-.238-1.427-.714-.476-.713-.714-1.189-.714-1.427 0-.476.238-.952.714-1.428l21.233-21.412zm78.332 10.171c.476-.476.952-.714 1.428-.714.595 0 1.07.238 1.427.714.476.357.714.773.714 1.249 0 .476-.238.952-.714 1.428l-42.645 42.645c-.357.476-.773.714-1.249.714-.476 0-.952-.238-1.428-.714s-.713-.951-.713-1.427c0-.238.237-.714.713-1.428l42.467-42.467zm-76.547.892c.475-.476.951-.713 1.427-.713.476 0 .892.237 1.249.713.476.357.714.774.714 1.249 0 .476-.238.952-.714 1.428l-18.379 18.557c-.475.476-.951.714-1.427.714-.238 0-.714-.238-1.428-.714-.475-.714-.713-1.19-.713-1.428 0-.475.238-.951.713-1.427l18.558-18.379zm4.817 7.851c.476-.475.952-.713 1.428-.713s.892.238 1.249.713c.476.357.713.774.713 1.249 0 .476-.237.952-.713 1.428l-17.665 17.665c-.476.476-.892.713-1.249.713-.238 0-.714-.237-1.428-.713-.475-.714-.713-1.19-.713-1.428 0-.476.238-.951.713-1.427l17.665-17.487zm6.959 5.353c.476-.475.952-.713 1.428-.713.594 0 1.07.238 1.427.713.476.357.714.833.714 1.428 0 .476-.238.951-.714 1.427l-18.022 18.022a1.695 1.695 0 0 1-1.427.714c-.476 0-.952-.238-1.428-.714-.475-.476-.713-.892-.713-1.249 0-.238.238-.714.713-1.427l18.022-18.201zm9.992 2.855c.476-.476.952-.713 1.428-.713s.892.237 1.249.713c.476.357.714.774.714 1.249 0 .476-.238.952-.714 1.428l-20.163 20.341a1.696 1.696 0 0 1-1.428.714c-.475 0-.951-.238-1.427-.714-.357-.476-.535-.951-.535-1.427 0-.595.178-1.071.535-1.428l20.341-20.163zm47.642 2.677c.476-.476.952-.714 1.427-.714.595 0 1.071.238 1.428.714s.535.951.535 1.427c0 .595-.178 1.071-.535 1.428l-15.702 15.702a1.696 1.696 0 0 1-1.428.714c-.475 0-.951-.238-1.427-.714-.357-.476-.535-.952-.535-1.428 0-.594.178-1.07.535-1.427l15.702-15.702z" fill="url(#_Linear7)"/><path d="M1712.26 750.455c.476-.476.952-.714 1.428-.714.595 0 1.07.238 1.427.714.476.357.714.832.714 1.427 0 .476-.238.952-.714 1.428l-5.531 5.531c-.476.476-.952.714-1.428.714-.238 0-.713-.238-1.427-.714-.476-.476-.714-.952-.714-1.427 0-.595.238-1.071.714-1.428l5.531-5.531zm25.338 0c.476-.476.951-.714 1.427-.714.476 0 .892.238 1.249.714.476.357.714.832.714 1.427 0 .476-.238.952-.714 1.428l-30.69 30.69c-.476.476-.952.714-1.428.714-.238 0-.713-.238-1.427-.714-.476-.476-.714-.951-.714-1.427 0-.476.238-.892.714-1.249l30.869-30.869zm-12.669 0c.476-.476.952-.714 1.428-.714.594 0 1.07.238 1.427.714.476.357.714.773.714 1.249 0 .476-.238.951-.714 1.427l-18.2 18.379c-.476.476-.952.714-1.428.714-.238 0-.713-.238-1.427-.714-.476-.476-.714-.952-.714-1.428 0-.594.238-1.07.714-1.427l18.2-18.2zm24.267.892c.476-.476.952-.714 1.427-.714.595 0 1.071.238 1.428.714s.535.952.535 1.427c0 .595-.178 1.071-.535 1.428l-42.467 42.467c-.476.476-.952.714-1.428.714-.238 0-.713-.238-1.427-.714-.476-.476-.714-.952-.714-1.427 0-.595.238-1.071.714-1.428l42.467-42.467zm9.814 3.033c.476-.476.951-.713 1.427-.713.476 0 .892.237 1.249.713.476.357.714.774.714 1.249 0 .476-.238.952-.714 1.428l-22.304 22.304c-.476.476-.892.714-1.249.714-.238 0-.714-.238-1.427-.714-.476-.714-.714-1.19-.714-1.428 0-.475.238-.951.714-1.427l22.304-22.126zm8.386 4.104c.476-.476.952-.713 1.428-.713.475 0 .892.237 1.249.713.475.357.713.833.713 1.428 0 .476-.238.951-.713 1.427l-18.914 18.914c-.476.476-.952.714-1.428.714-.238 0-.713-.238-1.427-.714-.476-.714-.714-1.189-.714-1.427 0-.357.238-.774.714-1.249l19.092-19.093zm7.137 5.353c.476-.476.952-.713 1.428-.713.595 0 1.071.237 1.427.713.476.357.714.833.714 1.428 0 .476-.238.951-.714 1.427l-17.843 17.844c-.476.475-.892.713-1.249.713-.238 0-.714-.238-1.427-.713-.476-.714-.714-1.19-.714-1.428 0-.476.238-.952.714-1.427l17.664-17.844zm6.246 6.424c.475-.476.951-.714 1.427-.714.595 0 1.071.238 1.428.714.475.357.713.833.713 1.427 0 .476-.238.952-.713 1.428l-18.022 17.843c-.476.476-.892.714-1.249.714-.238 0-.714-.238-1.428-.714-.475-.714-.713-1.189-.713-1.427 0-.476.238-.952.713-1.428l17.844-17.843zm5.174 7.494c.476-.476.952-.714 1.428-.714.594 0 1.07.238 1.427.714.476.357.714.773.714 1.249 0 .476-.238.952-.714 1.428l-19.449 19.449c-.476.476-.952.714-1.428.714-.237 0-.713-.238-1.427-.714-.476-.476-.714-.892-.714-1.249 0-.476.238-.952.714-1.428l19.449-19.449zm-53.173 2.677c.476-.476.952-.714 1.428-.714.594 0 1.07.238 1.427.714.476.356.714.773.714 1.249 0 .475-.238.951-.714 1.427l-26.051 26.23c-.476.476-.952.713-1.428.713-.238 0-.713-.237-1.427-.713-.476-.476-.714-.952-.714-1.428 0-.595.238-1.07.714-1.427l26.051-26.051zm57.099 5.888c.476-.476.951-.714 1.427-.714.595 0 1.071.238 1.428.714.476.357.713.833.713 1.427 0 .476-.237.952-.713 1.428l-26.408 26.408c-.476.476-.893.714-1.249.714-.238 0-.714-.238-1.428-.714-.476-.714-.714-1.19-.714-1.428 0-.475.238-.951.714-1.427l26.23-26.408zm-57.099 6.602c.476-.476.952-.714 1.428-.714.594 0 1.07.238 1.427.714.476.357.714.833.714 1.427 0 .476-.238.952-.714 1.428l-26.051 26.051c-.476.476-.952.714-1.428.714-.238 0-.713-.238-1.427-.714-.476-.357-.714-.773-.714-1.249 0-.595.238-1.071.714-1.427l26.051-26.23zm59.775 3.569c.476-.476.952-.714 1.428-.714s.892.238 1.249.714c.476.356.713.832.713 1.427 0 .476-.237.952-.713 1.427l-85.648 85.648a1.696 1.696 0 0 1-1.428.714c-.475 0-.951-.238-1.427-.714-.476-.475-.714-.951-.714-1.427 0-.595.238-1.071.714-1.428l85.826-85.647zm-59.775 9.1c.476-.476.952-.714 1.428-.714.594 0 1.07.238 1.427.714.476.356.714.832.714 1.427 0 .476-.238.952-.714 1.428l-26.051 26.051c-.476.476-.952.714-1.428.714-.238 0-.713-.238-1.427-.714-.476-.476-.714-.952-.714-1.428 0-.475.238-.892.714-1.249l26.051-26.229zm59.954 3.211c.476-.475.951-.713 1.427-.713.595 0 1.071.238 1.428.713.475.357.713.833.713 1.428 0 .476-.238.952-.713 1.427l-45.144 44.966c-.476.475-.892.713-1.249.713-.238 0-.714-.238-1.427-.713-.476-.714-.714-1.19-.714-1.428 0-.476.238-.952.714-1.427l44.965-44.966zm-59.954 9.457c.476-.475.952-.713 1.428-.713.594 0 1.07.238 1.427.713.476.357.714.774.714 1.249 0 .476-.238.952-.714 1.428l-26.051 26.23c-.476.475-.952.713-1.428.713-.238 0-.713-.238-1.427-.713-.476-.476-.714-.952-.714-1.428 0-.595.238-1.071.714-1.427l26.051-26.052zm19.092 6.246c.476-.476.952-.714 1.428-.714s.892.238 1.249.714c.476.356.714.832.714 1.427 0 .476-.238.952-.714 1.427l-44.965 44.966c-.476.475-.952.713-1.428.713-.238 0-.713-.238-1.427-.713-.476-.476-.714-.952-.714-1.428s.238-.892.714-1.249l45.143-45.143zm35.687 2.141c.476-.476.952-.714 1.428-.714.594 0 1.07.238 1.427.714.476.357.714.773.714 1.249 0 .476-.238.951-.714 1.427l-30.869 30.869c-.476.476-.952.714-1.427.714-.238 0-.714-.238-1.428-.714-.476-.714-.714-1.189-.714-1.427 0-.357.238-.773.714-1.249l30.869-30.869zm-51.924 1.427c.476-.476.952-.714 1.428-.714.594 0 1.07.238 1.427.714.476.357.714.773.714 1.249 0 .476-.238.952-.714 1.428l-28.906 29.084c-.476.476-.952.714-1.428.714-.238 0-.713-.238-1.427-.714-.476-.476-.714-.951-.714-1.427 0-.595.238-1.071.714-1.428l28.906-28.906zm44.073 19.093c.476-.476.952-.714 1.428-.714.475 0 .892.238 1.249.714.475.356.713.773.713 1.249 0 .475-.238.951-.713 1.427l-18.201 18.2c-.951.952-1.843 1.011-2.676.179-.476-.714-.714-1.19-.714-1.428 0-.476.238-.951.714-1.427l18.2-18.2zm4.639 7.851c.476-.476.952-.714 1.428-.714.595 0 1.07.238 1.427.714.476.356.714.832.714 1.427 0 .476-.238.952-.714 1.428l-18.378 18.2c-.476.476-.893.713-1.249.713-.238 0-.714-.237-1.428-.713-.476-.714-.714-1.19-.714-1.428 0-.476.238-.951.714-1.427l18.2-18.2zm4.64 8.029c.475-.476.951-.714 1.427-.714.595 0 1.071.238 1.428.714.475.357.713.773.713 1.249 0 .476-.238.952-.713 1.428l-18.201 18.2c-.475.476-.951.714-1.427.714-.238 0-.714-.238-1.428-.714-.475-.476-.713-.892-.713-1.249 0-.476.238-.952.713-1.428l18.201-18.2zm-56.207 5.71c.476-.476.952-.714 1.428-.714.594 0 1.07.238 1.427.714.476.357.714.773.714 1.249 0 .476-.238.952-.714 1.427l-26.051 26.23a1.696 1.696 0 0 1-1.428.714c-.475 0-.951-.238-1.427-.714a1.696 1.696 0 0 1-.714-1.427c0-.476.238-.952.714-1.428l26.051-26.051zm61.024 2.141c.476-.476.952-.714 1.428-.714s.892.238 1.249.714c.476.357.714.833.714 1.428 0 .475-.238.951-.714 1.427l-18.2 18.2a1.696 1.696 0 0 1-1.428.714c-.476 0-.952-.238-1.427-.714-.476-.476-.714-.951-.714-1.427 0-.238.238-.714.714-1.428l18.378-18.2zm4.64 8.03c.475-.476.951-.714 1.427-.714.476 0 .892.238 1.249.714.476.357.714.773.714 1.249 0 .476-.238.951-.714 1.427l-16.416 16.594a1.695 1.695 0 0 1-1.427.714c-.476 0-.952-.238-1.428-.714-.476-.475-.713-.951-.713-1.427 0-.238.237-.714.713-1.427l16.595-16.416zm-65.664 2.319c.476-.476.952-.713 1.428-.713.594 0 1.07.237 1.427.713.476.357.714.833.714 1.428 0 .476-.238.951-.714 1.427l-14.096 14.096a1.696 1.696 0 0 1-1.428.714c-.475 0-.951-.238-1.427-.714-.476-.475-.714-.892-.714-1.249 0-.238.238-.713.714-1.427l14.096-14.275zm70.303 5.532c.714-.476 1.189-.714 1.427-.714.357 0 .773.238 1.249.714.476.476.714.951.714 1.427 0 .595-.238 1.071-.714 1.428l-8.564 8.564c-.357.476-.774.714-1.25.714-.475 0-.951-.238-1.427-.714-.476-.475-.714-.951-.714-1.427 0-.238.238-.714.714-1.427l8.565-8.565zm-70.303 7.137c.714-.476 1.19-.714 1.428-.714.475 0 .951.238 1.427.714.476.476.714.952.714 1.428 0 .594-.238 1.07-.714 1.427l-1.427 1.427a1.696 1.696 0 0 1-1.428.714c-.476 0-.952-.238-1.427-.714-.476-.475-.714-.951-.714-1.427 0-.238.238-.714.714-1.427l1.427-1.428zm74.942.892c.714-.476 1.19-.714 1.428-.714.475 0 .951.238 1.427.714.476.476.714.952.714 1.428 0 .475-.238.892-.714 1.249l-.714.713a1.695 1.695 0 0 1-1.427.714c-.476 0-.952-.238-1.428-.714-.475-.475-.713-.892-.713-1.249 0-.238.238-.713.713-1.427l.714-.714z" fill="url(#_Linear8)"/></g><defs><linearGradient id="_Linear1" x1="0" y1="0" x2="1" y2="0" gradientUnits="userSpaceOnUse" gradientTransform="matrix(1755 -806.303 806.303 1755 27 726.303)"><stop offset="0" stop-color="#08fff6"/><stop offset="1" stop-color="#1032d9"/></linearGradient><linearGradient id="_Linear2" x1="0" y1="0" x2="1" y2="0" gradientUnits="userSpaceOnUse" gradientTransform="matrix(1755 -806.303 806.303 1755 27 726.303)"><stop offset="0" stop-color="#08fff6"/><stop offset="1" stop-color="#1032d9"/></linearGradient><linearGradient id="_Linear3" x1="0" y1="0" x2="1" y2="0" gradientUnits="userSpaceOnUse" gradientTransform="matrix(1755 -806.303 806.303 1755 27 726.303)"><stop offset="0" stop-color="#08fff6"/><stop offset="1" stop-color="#1032d9"/></linearGradient><linearGradient id="_Linear4" x1="0" y1="0" x2="1" y2="0" gradientUnits="userSpaceOnUse" gradientTransform="rotate(20.56 -1438.935 3823.202) scale(598.405)"><stop offset="0" stop-color="#ef52c7"/><stop offset="1" stop-color="#00ffc9"/></linearGradient><linearGradient id="_Linear5" x1="0" y1="0" x2="1" y2="0" gradientUnits="userSpaceOnUse" gradientTransform="rotate(20.56 -1438.935 3823.202) scale(598.405)"><stop offset="0" stop-color="#ef52c7"/><stop offset="1" stop-color="#00ffc9"/></linearGradient><linearGradient id="_Linear6" x1="0" y1="0" x2="1" y2="0" gradientUnits="userSpaceOnUse" gradientTransform="rotate(20.56 -1438.935 3823.202) scale(598.405)"><stop offset="0" stop-color="#ef52c7"/><stop offset="1" stop-color="#00ffc9"/></linearGradient><linearGradient id="_Linear7" x1="0" y1="0" x2="1" y2="0" gradientUnits="userSpaceOnUse" gradientTransform="rotate(20.56 -1438.935 3823.202) scale(598.405)"><stop offset="0" stop-color="#ef52c7"/><stop offset="1" stop-color="#00ffc9"/></linearGradient><linearGradient id="_Linear8" x1="0" y1="0" x2="1" y2="0" gradientUnits="userSpaceOnUse" gradientTransform="rotate(20.56 -1438.935 3823.202) scale(598.405)"><stop offset="0" stop-color="#ef52c7"/><stop offset="1" stop-color="#00ffc9"/></linearGradient></defs></svg>