<svg viewBox="0 0 604 435" xmlns="http://www.w3.org/2000/svg" fill-rule="evenodd" clip-rule="evenodd" stroke-linejoin="round" stroke-miterlimit="1.414"><path d="M186.235 168.269V24.931c0-11.303-4.074-18.43-12.222-21.378l-5.238-1.843 2.328-1.475h79.153c.128.021.251.043.368.067-1.212.989-3.469 3.67-6.77 8.042-5.82 8.601-8.73 14.13-8.73 16.587v99.995a195.15 195.15 0 0 0-48.889 43.343zm212.122-62.95C390.179 49.021 342.672 4.999 283.859.558c3.479-.245 6.992-.369 10.534-.369 73.718 0 134.641 53.84 143.621 123.35a192.703 192.703 0 0 0-39.657-18.22z" fill="#f11e4d"/><path d="M164.79 276.654c-.447-.402-.671-.886-.671-1.45 0-2.212 2.522-3.318 7.566-3.318.388 0 1.261.246 2.619.738 1.358.491 2.425.614 3.201.368 4.656-.491 7.372-2.826 8.148-7.003.388-.983.582-2.58.582-4.792v-92.928a195.087 195.087 0 0 1 48.889-43.343v136.271c0 5.652 6.79 8.478 20.37 8.478 22.116 0 44.62-5.038 67.513-15.112 10.782-4.634 15.832-12.657 15.148-24.068l43.163 25.611c-.644.807-1.651 1.644-3.021 2.511-18.995 12.03-40.701 18.05-65.184 18.061H193.015v-.024H164.79z" fill="#f11e4d"/><path d="M186.235 165.923a195.11 195.11 0 0 1 48.889-43.344v2.347a195.087 195.087 0 0 0-48.889 43.343v-2.346zm212.373-60.518l-.251-1.966a193.277 193.277 0 0 1 39.34 18.034l.317 2.066c-12.364-7.468-25.543-13.57-39.406-18.134z" fill="#fff"/><path d="M398.608 105.406a193.243 193.243 0 0 1 39.406 18.133 135.554 135.554 0 0 1 1.124 16.606c-.174 41.307-18.637 78.477-47.899 104.184l-41.54-24.081c30.319-22.327 49.908-57.77 49.908-97.638l-.022-1.189.022-.691c0-5.197-.333-10.32-.999-15.324z" fill="#f11e4d"/><path d="M.119 366.92H25.47c18.257 0 30.773-11.002 30.773-27.903 0-16.901-12.516-27.903-30.773-27.903H.119v55.806zm12.915-10.603v-34.6h11.799c11.081 0 18.336 6.617 18.336 17.3s-7.255 17.3-18.336 17.3H13.034zm93.833 10.603h13.553l-24.953-55.806H82.711L57.838 366.92h13.233l4.943-11.959h25.91l4.943 11.959zM80.16 345.155l8.849-21.365 8.849 21.365H80.16zm83.868-34.041l-17.22 39.861-16.981-39.861h-13.952l24.077 55.806h12.755l24.156-55.806h-12.835zm17.459 0h12.915v55.806h-12.915zm26.149 55.806h25.352c18.256 0 30.772-11.002 30.772-27.903 0-16.901-12.516-27.903-30.772-27.903h-25.352v55.806zm12.915-10.603v-34.6h11.799c11.081 0 18.336 6.617 18.336 17.3s-7.255 17.3-18.336 17.3h-11.799zm75.497 10.603h40.898v-10.524h-27.983v-45.282h-12.915v55.806zm74.221.956c17.539 0 30.534-12.197 30.534-28.859 0-16.662-12.995-28.86-30.534-28.86-17.618 0-30.533 12.278-30.533 28.86s12.915 28.859 30.533 28.859zm0-11.001c-9.965 0-17.459-7.255-17.459-17.858 0-10.603 7.494-17.858 17.459-17.858 9.966 0 17.46 7.255 17.46 17.858 0 10.603-7.494 17.858-17.46 17.858zm110.416-45.761l-12.995 39.542-12.755-39.542h-11.959l-13.154 39.223-12.596-39.223h-13.393l18.336 55.806h13.792l12.676-37.789 12.277 37.789h13.871l18.257-55.806h-12.357zm32.367 45.442v-12.915h25.91v-10.045h-25.91v-12.118h29.338v-10.364h-42.173v55.806h43.209v-10.364h-30.374zm90.086 10.364l-12.516-17.938c7.255-3.109 11.48-9.248 11.48-17.619 0-12.516-9.327-20.249-24.236-20.249h-24.155v55.806h12.915v-15.546h11.878l10.763 15.546h13.871zm-14.11-35.557c0 6.059-3.987 9.727-11.879 9.727h-10.523v-19.453h10.523c7.892 0 11.879 3.588 11.879 9.726zM122.28 434.336h15.07c10.852 0 18.293-6.539 18.293-16.586 0-10.047-7.441-16.587-18.293-16.587h-15.07v33.173zm7.677-6.302v-20.568h7.014c6.587 0 10.9 3.934 10.9 10.284 0 6.35-4.313 10.284-10.9 10.284h-7.014zm62.792.142v-7.678h15.402v-5.971h-15.402v-7.203h17.44v-6.161h-25.07v33.173h25.686v-6.16h-18.056zm58.764 6.729c9.478 0 14.075-4.739 14.075-10.284 0-12.179-19.288-7.961-19.288-14.074 0-2.086 1.754-3.792 6.303-3.792 2.938 0 6.114.853 9.194 2.607l2.369-5.829c-3.08-1.943-7.345-2.938-11.515-2.938-9.431 0-13.981 4.691-13.981 10.331 0 12.321 19.288 8.056 19.288 14.264 0 2.038-1.848 3.554-6.397 3.554-3.981 0-8.151-1.421-10.948-3.459l-2.606 5.782c2.938 2.274 8.246 3.838 13.506 3.838zm43.031-33.742h7.677v33.173h-7.677zm61.654 25.781c-1.943 1.042-3.886 1.421-5.971 1.421-6.35 0-10.757-4.407-10.757-10.615 0-6.303 4.407-10.616 10.852-10.616 3.365 0 6.161 1.185 8.578 3.744l4.928-4.549c-3.222-3.744-8.056-5.734-13.885-5.734-10.568 0-18.245 7.155-18.245 17.155 0 9.999 7.677 17.155 18.103 17.155 4.739 0 9.762-1.469 13.411-4.218v-13.458h-7.014v9.715zm60.66-25.781v20.141l-16.492-20.141h-6.35v33.173h7.582v-20.14l16.54 20.14h6.303v-33.173h-7.583zm50.044 33.742c9.478 0 14.075-4.739 14.075-10.284 0-12.179-19.288-7.961-19.288-14.074 0-2.086 1.754-3.792 6.303-3.792 2.938 0 6.114.853 9.194 2.607l2.37-5.829c-3.081-1.943-7.346-2.938-11.516-2.938-9.431 0-13.98 4.691-13.98 10.331 0 12.321 19.287 8.056 19.287 14.264 0 2.038-1.848 3.554-6.397 3.554-3.981 0-8.151-1.421-10.947-3.459l-2.607 5.782c2.938 2.274 8.246 3.838 13.506 3.838z" fill="#f11e4d" fill-rule="nonzero"/></svg>